<svg width="261" height="64" viewBox="0 0 261 64" fill="none" xmlns="http://www.w3.org/2000/svg">
<path d="M61.7136 61.0693C54.6099 61.0693 48.8047 55.3743 48.8047 47.2949C48.8047 39.2537 54.6099 33.5591 61.7136 33.5591C68.8894 33.5591 74.5865 39.2537 74.5865 47.2949C74.5865 55.3747 68.8531 61.0693 61.7136 61.0693ZM61.7136 56.2585C66.2571 56.2585 69.3942 52.7572 69.3942 47.2938C69.3942 41.8305 66.2565 38.4058 61.7136 38.4058C57.1338 38.4058 53.9977 41.8311 53.9977 47.2949C53.9977 52.7586 57.1354 56.2595 61.7136 56.2595V56.2585Z" fill="#272727"/>
<path d="M78.2627 33.9438H83.3111V50.5656C83.3111 54.259 85.1862 56.1829 88.3954 56.1829C91.6393 56.1829 93.5156 54.259 93.5156 50.5656V33.9438H98.6003V50.5262C98.5999 57.6067 93.84 61.0679 88.322 61.0679C82.8041 61.0679 78.2627 57.6067 78.2627 50.5262V33.9438Z" fill="#272727"/>
<path d="M124.994 33.9053V60.8005H119.945L108.513 42.3705V60.8005H103.467V33.9053H108.515L119.947 52.3739V33.9053H124.994Z" fill="#272727"/>
<path d="M152.035 47.4101C152.035 55.5286 146.807 60.7998 138.765 60.7998H129.967V33.9438H138.765C146.806 33.9438 152.035 39.2533 152.035 47.4101ZM138.585 56.2212C143.885 56.2212 146.878 52.9891 146.878 47.4101C146.878 41.8311 143.886 38.4838 138.585 38.4838H135.015V56.2212H138.585Z" fill="#272727"/>
<path d="M173.055 33.9438H178.428L169.198 60.7991H163.067L153.837 33.9438H159.245L166.168 55.2994L173.055 33.9438Z" fill="#272727"/>
<path d="M196.06 38.2916H186.504V45.0246H194.979V49.2954H186.504V56.4141H196.06V60.8005H181.456V33.9053H196.06V38.2916Z" fill="#272727"/>
<path d="M210.085 33.9438C216.143 33.9438 219.172 37.6759 219.172 42.1769C219.172 45.4473 217.477 48.7563 213.439 49.9103L219.46 60.7981H213.62L208.066 50.3337H205.686V60.7991H200.638V33.9438H210.085ZM209.903 38.4068H205.683V46.2948H209.903C212.716 46.2948 213.978 44.7154 213.978 42.2932C213.98 39.9076 212.717 38.4068 209.903 38.4068Z" fill="#272727"/>
<path d="M232.44 61.0693C227.212 61.0693 223.173 58.144 223.101 53.0664H228.51C228.654 55.2208 229.988 56.6446 232.332 56.6446C234.711 56.6446 236.117 55.2981 236.117 53.3739C236.117 47.5644 223.136 51.0659 223.174 41.3311C223.173 36.4843 226.851 33.5591 232.043 33.5591C237.199 33.5591 240.733 36.3677 241.058 41.2155H235.503C235.396 39.4456 234.061 38.0607 231.898 38.0231C229.914 37.9461 228.436 38.9848 228.436 41.1779C228.436 46.5646 241.345 43.5638 241.345 53.0284C241.346 57.2602 238.174 61.0693 232.44 61.0693Z" fill="#272727"/>
<path d="M260.312 38.2916H250.756V45.0246H259.23V49.2954H250.756V56.4141H260.312V60.8005H245.708V33.9053H260.312V38.2916Z" fill="#272727"/>
<path d="M30.2902 30.33V44.6152C30.2837 47.0656 29.3687 49.4137 27.745 51.1466C26.1213 52.8795 23.9209 53.8563 21.6245 53.8638H19.5364C17.5217 53.8565 15.5826 53.0448 14.1006 51.5885C12.6185 50.1323 11.701 48.1368 11.5286 45.995C11.513 45.8331 11.4413 45.6834 11.3275 45.5751C11.2136 45.4668 11.066 45.4079 10.9135 45.4099H0.624277C0.540518 45.4097 0.457575 45.4275 0.380413 45.4623C0.303252 45.497 0.233458 45.5481 0.175209 45.6123C0.116961 45.6765 0.0714554 45.7526 0.0414169 45.836C0.0113784 45.9195 -0.00257547 46.0085 0.000390506 46.0978C0.516884 57.359 9.67772 63.8224 21.4689 63.8224C34.6647 63.8224 41.9667 55.0574 41.9667 45.3219C41.9667 36.4228 37.009 32.314 31.1409 29.7167C31.0468 29.6762 30.9448 29.661 30.844 29.6725C30.7431 29.6839 30.6464 29.7216 30.5624 29.7823C30.4784 29.843 30.4097 29.9248 30.3623 30.0204C30.3149 30.1161 30.2902 30.2228 30.2905 30.331L30.2902 30.33ZM20.5587 0.522949C8.60946 0.522949 0.14778 7.25154 0.14778 18.4089C0.118491 27.3879 4.90235 31.4725 10.6452 34.0093C10.7392 34.0498 10.8412 34.065 10.942 34.0536C11.0428 34.0422 11.1395 34.0045 11.2235 33.9438C11.3075 33.8832 11.3762 33.8015 11.4236 33.7058C11.4711 33.6102 11.4958 33.5036 11.4955 33.3954V19.7305C11.5024 17.2803 12.4177 14.9325 14.0415 13.2C15.6653 11.4674 17.8656 10.4909 20.1619 10.4836H22.2493C24.1436 10.4887 25.9757 11.2054 27.4243 12.5079C28.8729 13.8104 29.8454 15.6156 30.1712 17.6067C30.1984 17.7574 30.2744 17.8931 30.3858 17.9902C30.4972 18.0872 30.6371 18.1394 30.7809 18.1377H40.6254C40.7119 18.1379 40.7975 18.1189 40.8767 18.0818C40.9559 18.0447 41.0269 17.9903 41.0852 17.9222C41.1436 17.8541 41.1879 17.7737 41.2154 17.6862C41.2429 17.5987 41.2529 17.506 41.2449 17.4142C40.1978 6.70783 32.1619 0.522949 20.5587 0.522949Z" fill="#272727"/>
<path d="M17.9688 23.8438H17.9257C17.127 23.8438 16.4795 24.5346 16.4795 25.3869V35.1257C16.4795 35.978 17.127 36.6688 17.9257 36.6688H17.9688C18.7675 36.6688 19.415 35.978 19.415 35.1257V25.3869C19.415 24.5346 18.7675 23.8438 17.9688 23.8438Z" fill="#272727"/>
<path d="M24.0421 26.8682H23.9989C23.2002 26.8682 22.5527 27.559 22.5527 28.4113V38.1501C22.5527 39.0024 23.2002 39.6933 23.9989 39.6933H24.0421C24.8408 39.6933 25.4882 39.0024 25.4882 38.1501V28.4113C25.4882 27.559 24.8408 26.8682 24.0421 26.8682Z" fill="#272727"/>
</svg>
