<svg xmlns="http://www.w3.org/2000/svg" xmlns:xlink="http://www.w3.org/1999/xlink" width="924" height="369" viewBox="0 0 924 369">
  <defs>
    <clipPath id="clip-Artboard_335">
      <rect width="924" height="369"/>
    </clipPath>
  </defs>
  <g id="Artboard_335" data-name="Artboard – 335" clip-path="url(#clip-Artboard_335)">
    <g id="Ebene_2" data-name="Ebene 2" transform="translate(162.418 168.309)">
      <g id="Ebene_1" data-name="Ebene 1" transform="translate(28.884)">
        <path id="Path_1789" data-name="Path 1789" d="M111.147,81.865c-22.556,0-40.989-16.947-40.989-40.99C70.158,16.946,88.591,0,111.147,0c22.785,0,40.875,16.946,40.875,40.875C152.022,64.919,133.817,81.865,111.147,81.865Zm0-14.316c14.427,0,24.388-10.419,24.388-26.677s-9.963-26.449-24.388-26.449c-14.542,0-24.5,10.193-24.5,26.452s9.963,26.677,24.5,26.677Z" transform="translate(-70.158)" fill="#fff"/>
        <path id="Path_1790" data-name="Path 1790" d="M166.859,1.184h16.03V50.647c0,10.991,5.954,16.716,16.144,16.716,10.3,0,16.258-5.725,16.258-16.716V1.184h16.145V50.53C231.435,71.6,216.321,81.9,198.8,81.9S166.859,71.6,166.859,50.53Z" transform="translate(-73.323 -0.039)" fill="#fff"/>
        <path id="Path_1791" data-name="Path 1791" d="M317.947,1.065V81.1h-16.03l-36.3-54.844V81.1H249.594V1.065h16.029l36.3,54.959V1.065Z" transform="translate(-76.03 -0.035)" fill="#fff"/>
        <path id="Path_1792" data-name="Path 1792" d="M406.66,41.257c0,24.159-16.6,39.845-42.134,39.845H336.589V1.184h27.937C390.058,1.184,406.66,16.984,406.66,41.257Zm-42.707,26.22c16.831,0,26.334-9.618,26.334-26.22s-9.5-26.563-26.334-26.563H352.618V67.477Z" transform="translate(-78.877 -0.039)" fill="#fff"/>
        <path id="Path_1793" data-name="Path 1793" d="M475.97,1.184h17.061L463.723,81.1H444.255L414.947,1.184h17.172L454.1,64.734Z" transform="translate(-81.442 -0.039)" fill="#fff"/>
        <path id="Path_1794" data-name="Path 1794" d="M551.981,14.118H521.64V34.154h26.908V46.863H521.64V68.047h30.341V81.1H505.61V1.065h46.371Z" transform="translate(-84.409 -0.035)" fill="#fff"/>
        <path id="Path_1795" data-name="Path 1795" d="M598.577,1.184c19.235,0,28.854,11.106,28.854,24.5,0,9.732-5.382,19.579-18.206,23.013l19.121,32.4H609.8L592.165,49.957h-7.556V81.1h-16.03V1.184ZM598,14.465h-13.4V37.938H598c8.931,0,12.938-4.7,12.938-11.908C610.943,18.931,606.935,14.465,598,14.465Z" transform="translate(-86.469 -0.039)" fill="#fff"/>
        <path id="Path_1796" data-name="Path 1796" d="M671.973,81.865c-16.6,0-29.426-8.705-29.655-23.815h17.175c.457,6.411,4.693,10.648,12.136,10.648,7.556,0,12.021-4.007,12.021-9.733,0-17.288-41.218-6.868-41.1-35.837C642.547,8.705,654.225,0,670.712,0c16.373,0,27.593,8.358,28.625,22.784H681.7c-.342-5.267-4.579-9.388-11.449-9.5-6.3-.229-10.991,2.862-10.991,9.388,0,16.03,40.989,7.1,40.989,35.265C700.253,70.53,690.181,81.865,671.973,81.865Z" transform="translate(-88.883)" fill="#fff"/>
        <path id="Path_1797" data-name="Path 1797" d="M762.9,14.118H732.558V34.154h26.907V46.863H732.558V68.047H762.9V81.1H716.529V1.065H762.9Z" transform="translate(-91.311 -0.035)" fill="#fff"/>
      </g>
    </g>
    <g id="Ebene_2-2" data-name="Ebene 2" transform="translate(36.336 70)">
      <g id="Ebene_1-2" data-name="Ebene 1" transform="translate(0)">
        <path id="Path_1826" data-name="Path 1826" d="M96.178,88.7V131.21a27.6,27.6,0,0,1-27.516,27.522H62.032a25.608,25.608,0,0,1-25.427-23.416,1.939,1.939,0,0,0-1.953-1.741H1.981A1.977,1.977,0,0,0,0,135.622c1.64,33.511,30.728,52.745,68.168,52.745,41.9,0,65.086-26.083,65.086-55.054,0-26.482-15.742-38.709-34.375-46.438a1.965,1.965,0,0,0-2.7,1.828ZM65.278,0C27.336,0,.468,20.023.468,53.225.375,79.945,15.565,92.1,33.8,99.649a1.965,1.965,0,0,0,2.7-1.827V57.158A27.6,27.6,0,0,1,64.018,29.641h6.628A25.6,25.6,0,0,1,95.8,50.838a1.949,1.949,0,0,0,1.936,1.58h31.259a1.97,1.97,0,0,0,1.967-2.153C127.637,18.405,102.121,0,65.278,0Z" transform="translate(0.001)" fill="#fff"/>
        <rect id="Rectangle_1857" data-name="Rectangle 1857" width="9.321" height="38.165" rx="4.592" transform="translate(52.325 69.398)" fill="#fff"/>
        <rect id="Rectangle_1858" data-name="Rectangle 1858" width="9.321" height="38.165" rx="4.592" transform="translate(71.611 78.398)" fill="#fff"/>
      </g>
    </g>
  </g>
</svg>
