<svg fill="#000000" xmlns="http://www.w3.org/2000/svg"  viewBox="0 0 70 70" width="90px" height="90px"><path d="M 25 8 C 15.611 8 8 15.611 8 25 C 8 34.389 15.611 42 25 42 C 34.389 42 42 34.389 42 25 C 42 15.611 34.389 8 25 8 z M 25 9 C 33.837 9 41 16.163 41 25 C 41 33.837 33.837 41 25 41 C 16.163 41 9 33.837 9 25 C 9 16.163 16.163 9 25 9 z M 25.033203 16.990234 C 22.505203 16.990234 20.392578 18.572781 20.392578 21.050781 C 20.392578 21.244781 20.485766 21.609375 20.884766 21.609375 C 21.283766 21.609375 21.419922 21.386109 21.419922 21.162109 C 21.419922 19.540109 22.815281 17.949219 24.988281 17.949219 C 27.195281 17.949219 28.513672 19.182281 28.513672 20.738281 C 28.513672 24.082281 24.164062 23.210578 24.164062 27.642578 C 24.164063 28.314578 24.328219 28.480469 24.699219 28.480469 C 25.094219 28.480469 25.189453 28.182844 25.189453 27.714844 C 25.189453 23.971844 29.607422 24.661391 29.607422 20.650391 C 29.607422 19.013391 28.203203 16.990234 25.033203 16.990234 z M 24.677734 30.755859 C 24.169734 30.755859 23.517578 31.142531 23.517578 31.894531 C 23.517578 32.707531 24.207734 33.054688 24.677734 33.054688 C 25.147734 33.054687 25.837891 32.715531 25.837891 31.894531 C 25.837891 31.134531 25.185734 30.755859 24.677734 30.755859 z"/></svg>