<svg width="31" height="31" viewBox="0 0 31 31" fill="none" xmlns="http://www.w3.org/2000/svg">
<path d="M3.16884 10.2548C3.53217 9.89155 4.02489 9.6875 4.53865 9.6875C5.0524 9.6875 5.54513 9.89155 5.90846 10.2548L15.4991 19.8454L25.0897 10.2548C25.4551 9.90184 25.9445 9.70655 26.4526 9.71097C26.9606 9.71538 27.4465 9.91915 27.8057 10.2784C28.165 10.6376 28.3687 11.1236 28.3731 11.6316C28.3776 12.1396 28.1823 12.629 27.8293 12.9944L16.8689 23.9548C16.5056 24.3181 16.0128 24.5221 15.4991 24.5221C14.9853 24.5221 14.4926 24.3181 14.1293 23.9548L3.16884 12.9944C2.80561 12.6311 2.60156 12.1383 2.60156 11.6246C2.60156 11.1108 2.80561 10.6181 3.16884 10.2548Z" fill="white"/>
</svg>
