<svg width="57" height="57" viewBox="0 0 57 57" fill="none" xmlns="http://www.w3.org/2000/svg">
<path d="M28.5 0C12.785 0 0 12.785 0 28.5C0 44.215 12.785 57 28.5 57C44.215 57 57 44.215 57 28.5C57 12.785 44.215 0 28.5 0ZM28.5 52.9286C15.0301 52.9286 4.07143 41.9699 4.07143 28.5C4.07143 15.0301 15.0301 4.07143 28.5 4.07143C41.9699 4.07143 52.9286 15.0301 52.9286 28.5C52.9286 41.9699 41.9699 52.9286 28.5 52.9286Z" fill="white"/>
<path d="M37.2338 19.7664C36.4387 18.9714 35.1499 18.9714 34.3548 19.7664L28.5001 25.6212L22.6452 19.7662C21.8501 18.9712 20.5613 18.9712 19.7662 19.7662C18.9712 20.5613 18.9712 21.8501 19.7662 22.6452L25.6212 28.5001L19.7662 34.355C18.9712 35.1501 18.9712 36.4389 19.7662 37.234C20.1636 37.6314 20.6848 37.8302 21.2057 37.8302C21.7266 37.8302 22.2475 37.6314 22.6452 37.234L28.5001 31.3791L34.355 37.234C34.7525 37.6314 35.2736 37.8302 35.7945 37.8302C36.3154 37.8302 36.8364 37.6314 37.234 37.234C38.0291 36.4389 38.0291 35.1501 37.234 34.355L31.3791 28.5001L37.234 22.6452C38.0288 21.8503 38.0288 20.5613 37.2338 19.7664Z" fill="white"/>
</svg>
