<svg width="23" height="23" viewBox="0 0 23 23" fill="none" xmlns="http://www.w3.org/2000/svg">
<g clip-path="url(#clip0_172_25521)">
<path d="M19.4709 4.30477C18.0047 3.64352 16.433 3.15477 14.7895 2.87685C14.7748 2.87404 14.7597 2.87585 14.7461 2.88203C14.7325 2.88821 14.7212 2.89846 14.7138 2.91135C14.5125 3.26498 14.2883 3.72593 14.1311 4.0901C12.388 3.82966 10.6158 3.82966 8.87271 4.0901C8.69766 3.68651 8.50025 3.29298 8.28142 2.91135C8.274 2.8983 8.26278 2.88782 8.24925 2.88132C8.23573 2.87481 8.22054 2.87258 8.20571 2.87493C6.56313 3.15285 4.99146 3.6416 3.52425 4.30381C3.51163 4.3091 3.50093 4.31813 3.49359 4.32968C0.511252 8.71406 -0.306206 12.9901 0.0953356 17.2126C0.096453 17.2229 0.099663 17.2329 0.10477 17.242C0.109878 17.251 0.116775 17.259 0.125044 17.2653C1.86575 18.5326 3.80728 19.498 5.86834 20.1211C5.8827 20.1255 5.89807 20.1255 5.91243 20.1211C5.92679 20.1166 5.93948 20.1079 5.94884 20.0962C6.39159 19.502 6.78642 18.8743 7.12375 18.215C7.14388 18.1766 7.12471 18.1306 7.08446 18.1153C6.46538 17.8822 5.86554 17.6008 5.29046 17.2739C5.28013 17.268 5.27142 17.2596 5.26512 17.2495C5.25882 17.2394 5.25512 17.2279 5.25436 17.2161C5.2536 17.2042 5.2558 17.1923 5.26077 17.1815C5.26573 17.1707 5.2733 17.1613 5.28279 17.1541C5.40354 17.065 5.52429 16.972 5.63929 16.8791C5.64965 16.8707 5.66211 16.8654 5.67531 16.8637C5.68851 16.862 5.70192 16.864 5.71404 16.8695C9.47742 18.56 13.5532 18.56 17.2725 16.8695C17.2847 16.8637 17.2982 16.8614 17.3116 16.8629C17.325 16.8645 17.3377 16.8697 17.3482 16.8781C17.4632 16.972 17.583 17.065 17.7047 17.1541C17.7143 17.1611 17.722 17.1704 17.7271 17.1811C17.7322 17.1918 17.7346 17.2037 17.734 17.2155C17.7335 17.2274 17.73 17.2389 17.7239 17.2491C17.7177 17.2593 17.7092 17.2678 17.699 17.2739C17.1259 17.6036 16.5298 17.8824 15.904 18.1143C15.8944 18.1178 15.8856 18.1233 15.8783 18.1305C15.871 18.1376 15.8653 18.1462 15.8616 18.1558C15.8579 18.1653 15.8562 18.1755 15.8568 18.1857C15.8573 18.1959 15.86 18.2059 15.8647 18.215C16.2097 18.8733 16.6045 19.5001 17.0387 20.0952C17.0477 20.1074 17.0603 20.1166 17.0747 20.1214C17.0891 20.1262 17.1046 20.1264 17.1192 20.1221C19.1838 19.5007 21.1285 18.5348 22.8711 17.2653C22.8796 17.2593 22.8867 17.2516 22.892 17.2427C22.8973 17.2338 22.9006 17.2238 22.9018 17.2135C23.3809 12.3318 22.0987 8.09018 19.5006 4.3316C19.4943 4.31939 19.4837 4.30986 19.4709 4.30477ZM7.68629 14.6413C6.55354 14.6413 5.61917 13.6169 5.61917 12.3605C5.61917 11.1032 6.53534 10.0797 7.68629 10.0797C8.84588 10.0797 9.77163 11.1118 9.75342 12.3605C9.75342 13.6178 8.83725 14.6413 7.68629 14.6413ZM15.329 14.6413C14.1953 14.6413 13.2619 13.6169 13.2619 12.3605C13.2619 11.1032 14.1771 10.0797 15.329 10.0797C16.4886 10.0797 17.4143 11.1118 17.3961 12.3605C17.3961 13.6178 16.4895 14.6413 15.329 14.6413Z" fill="#ADADAD"/>
</g>
<defs>
<clipPath id="clip0_172_25521">
<rect width="23" height="23" fill="white"/>
</clipPath>
</defs>
</svg>
