<svg fill="#1A1A1A" xmlns="http://www.w3.org/2000/svg" viewBox="0 0 50 50" width="30px" height="30px"><path d="M 25 7 C 15.0625 7 7 15.0625 7 25 C 7 34.9375 15.0625 43 25 43 C 34.9375 43 43 34.9375 43 25 C 43 15.0625 34.9375 7 25 7 Z M 25 9 C 33.859375 9 41 16.140625 41 25 C 41 33.859375 33.859375 41 25 41 C 16.140625 41 9 33.859375 9 25 C 9 16.140625 16.140625 9 25 9 Z M 24 14 L 24 16.1875 C 22.398438 16.386719 19.5 17.789063 19.5 21.1875 C 19.5 27.585938 28.8125 24.292969 28.8125 29.09375 C 28.8125 30.695313 28.101563 32.1875 25 32.1875 C 21.898438 32.1875 21 29.800781 21 28.5 L 19 28.5 C 19.300781 32.800781 22.300781 33.792969 24 34.09375 L 24 36 L 26 36 L 26 34.09375 C 27.5 33.992188 31 32.90625 31 28.90625 C 31 25.605469 28.289063 24.695313 25.6875 24.09375 C 23.585938 23.59375 21.6875 23.101563 21.6875 21 C 21.6875 20.101563 22.09375 18.09375 25.09375 18.09375 C 27.195313 18.09375 28.199219 19.398438 28.5 21 L 30.5 21 C 29.898438 18.800781 28.898438 16.8125 26 16.3125 L 26 14 Z"/></svg>