<svg width="22" height="22" viewBox="0 0 22 22" fill="none" xmlns="http://www.w3.org/2000/svg">
<path fill-rule="evenodd" clip-rule="evenodd" d="M6.84324 0.977492C7.91849 0.927992 8.26133 0.916992 11.0003 0.916992C13.7393 0.916992 14.0822 0.928909 15.1565 0.977492C16.2308 1.02608 16.9642 1.19749 17.6058 1.44591C18.2777 1.69983 18.8873 2.09674 19.3915 2.61008C19.9048 3.11333 20.3008 3.72199 20.5538 4.39483C20.8032 5.03649 20.9737 5.76983 21.0232 6.84233C21.0727 7.91941 21.0837 8.26224 21.0837 11.0003C21.0837 13.7393 21.0717 14.0822 21.0232 15.1574C20.9746 16.2299 20.8032 16.9632 20.5538 17.6049C20.3008 18.2778 19.9042 18.8875 19.3915 19.3915C18.8873 19.9048 18.2777 20.3008 17.6058 20.5538C16.9642 20.8032 16.2308 20.9737 15.1583 21.0232C14.0822 21.0727 13.7393 21.0837 11.0003 21.0837C8.26133 21.0837 7.91849 21.0717 6.84324 21.0232C5.77074 20.9746 5.03741 20.8032 4.39574 20.5538C3.72284 20.3008 3.11316 19.9041 2.60916 19.3915C2.09617 18.8879 1.6992 18.2786 1.44591 17.6058C1.19749 16.9642 1.02699 16.2308 0.977492 15.1583C0.927992 14.0812 0.916992 13.7384 0.916992 11.0003C0.916992 8.26133 0.928909 7.91849 0.977492 6.84416C1.02608 5.76983 1.19749 5.03649 1.44591 4.39483C1.69957 3.72207 2.09685 3.1127 2.61008 2.60916C3.11336 2.09629 3.72243 1.69932 4.39483 1.44591C5.03649 1.19749 5.76983 1.02699 6.84233 0.977492H6.84324ZM15.0749 2.79249C14.0116 2.74391 13.6926 2.73383 11.0003 2.73383C8.30808 2.73383 7.98908 2.74391 6.92574 2.79249C5.94216 2.83741 5.40866 3.00149 5.05299 3.13991C4.58274 3.32324 4.24633 3.54049 3.89341 3.89341C3.55887 4.21887 3.30141 4.61508 3.13991 5.05299C3.00149 5.40866 2.83741 5.94216 2.79249 6.92574C2.74391 7.98908 2.73383 8.30808 2.73383 11.0003C2.73383 13.6926 2.74391 14.0116 2.79249 15.0749C2.83741 16.0585 3.00149 16.592 3.13991 16.9477C3.30124 17.3849 3.55883 17.7818 3.89341 18.1072C4.21883 18.4418 4.61574 18.6994 5.05299 18.8607C5.40866 18.9992 5.94216 19.1632 6.92574 19.2082C7.98908 19.2567 8.30716 19.2668 11.0003 19.2668C13.6935 19.2668 14.0116 19.2567 15.0749 19.2082C16.0585 19.1632 16.592 18.9992 16.9477 18.8607C17.4179 18.6774 17.7543 18.4602 18.1072 18.1072C18.4418 17.7818 18.6994 17.3849 18.8607 16.9477C18.9992 16.592 19.1632 16.0585 19.2082 15.0749C19.2567 14.0116 19.2668 13.6926 19.2668 11.0003C19.2668 8.30808 19.2567 7.98908 19.2082 6.92574C19.1632 5.94216 18.9992 5.40866 18.8607 5.05299C18.6774 4.58274 18.4602 4.24633 18.1072 3.89341C17.7818 3.55889 17.3856 3.30144 16.9477 3.13991C16.592 3.00149 16.0585 2.83741 15.0749 2.79249ZM9.71241 14.1087C10.4317 14.4082 11.2326 14.4486 11.9783 14.2231C12.7241 13.9976 13.3684 13.5202 13.8013 12.8724C14.2342 12.2246 14.4287 11.4466 14.3517 10.6713C14.2747 9.89605 13.9309 9.17155 13.3791 8.62158C13.0273 8.27001 12.6019 8.00082 12.1336 7.83338C11.6653 7.66594 11.1657 7.60441 10.6708 7.65322C10.1758 7.70204 9.69788 7.85999 9.27131 8.1157C8.84474 8.3714 8.48018 8.71851 8.20385 9.13202C7.92753 9.54554 7.74633 10.0152 7.6733 10.5071C7.60027 10.9991 7.63722 11.5011 7.78149 11.9771C7.92576 12.453 8.17377 12.8911 8.50765 13.2597C8.84154 13.6283 9.253 13.9182 9.71241 14.1087ZM7.33549 7.33549C7.81677 6.85422 8.38812 6.47245 9.01693 6.21199C9.64575 5.95153 10.3197 5.81747 11.0003 5.81747C11.6809 5.81747 12.3549 5.95153 12.9837 6.21199C13.6125 6.47245 14.1839 6.85422 14.6652 7.33549C15.1464 7.81677 15.5282 8.38812 15.7887 9.01693C16.0491 9.64575 16.1832 10.3197 16.1832 11.0003C16.1832 11.6809 16.0491 12.3549 15.7887 12.9837C15.5282 13.6125 15.1464 14.1839 14.6652 14.6652C13.6932 15.6371 12.3749 16.1832 11.0003 16.1832C9.62575 16.1832 8.30747 15.6371 7.33549 14.6652C6.36352 13.6932 5.81747 12.3749 5.81747 11.0003C5.81747 9.62575 6.36352 8.30747 7.33549 7.33549ZM17.3327 6.58933C17.4519 6.47682 17.5474 6.34153 17.6134 6.19147C17.6795 6.0414 17.7147 5.87961 17.7171 5.71568C17.7195 5.55174 17.689 5.38899 17.6274 5.23707C17.5657 5.08514 17.4742 4.94713 17.3583 4.8312C17.2424 4.71526 17.1043 4.62377 16.9524 4.56213C16.8005 4.5005 16.6377 4.46997 16.4738 4.47236C16.3099 4.47475 16.1481 4.51001 15.998 4.57605C15.848 4.64209 15.7127 4.73756 15.6002 4.85683C15.3814 5.08877 15.2616 5.39685 15.2662 5.71568C15.2709 6.0345 15.3996 6.33897 15.6251 6.56443C15.8505 6.7899 16.155 6.91862 16.4738 6.92327C16.7926 6.92792 17.1007 6.80813 17.3327 6.58933Z" fill="#ADADAD"/>
</svg>
