<svg fill="#000000" xmlns="http://www.w3.org/2000/svg" viewBox="0 0 48 48" width="25px" height="25px"><path d="M 42.132812 1.6230469 A 19.4452 19.4452 0 0 0 26.644531 8.421875 L 20.253906 15.90625 L 19.294922 15.496094 A 8.9468 8.9468 0 0 0 9.3828125 17.404297 L 3.3144531 23.470703 A 1.0006 1.0006 0 0 0 3.6289062 25.097656 L 10.056641 27.853516 L 8.9179688 29.185547 A 1 1 0 0 0 8.9726562 30.542969 L 17.457031 39.027344 A 1 1 0 0 0 18.814453 39.082031 L 20.146484 37.943359 L 22.902344 44.371094 A 1 1 0 0 0 24.527344 44.685547 L 30.595703 38.617188 A 8.9467 8.9467 0 0 0 32.503906 28.707031 L 32.09375 27.746094 L 39.578125 21.355469 A 19.4452 19.4452 0 0 0 46.015625 2.7695312 A 1.0009 1.0009 0 0 0 45.230469 1.984375 A 19.4452 19.4452 0 0 0 42.132812 1.6230469 z M 40.697266 3.625 A 17.4426 17.4426 0 0 1 44.173828 3.8261719 A 17.4426 17.4426 0 0 1 38.279297 19.833984 L 21.269531 34.355469 L 13.644531 26.728516 L 28.166016 9.7207031 A 17.4426 17.4426 0 0 1 40.697266 3.625 z M 35.353516 7.8691406 A 5 5 0 0 0 31.599609 16.400391 A 5.0061 5.0061 0 0 0 38.669922 16.400391 A 5 5 0 0 0 35.353516 7.8691406 z M 35.091797 9.8652344 A 3 3 0 0 1 37.255859 10.744141 A 3.0032 3.0032 0 0 1 37.255859 14.986328 A 3 3 0 1 1 35.091797 9.8652344 z M 15.808594 16.759766 A 6.9568 6.9568 0 0 1 18.505859 17.333984 L 18.894531 17.5 L 11.416016 26.259766 L 5.7734375 23.841797 L 10.796875 18.818359 A 6.9568 6.9568 0 0 1 15.808594 16.759766 z M 26.601562 17.525391 A 1 1 0 0 0 25.943359 19.228516 L 28.771484 22.056641 A 1 1 0 0 0 30.185547 20.642578 L 27.357422 17.814453 A 1 1 0 0 0 26.601562 17.525391 z M 12.341797 28.253906 L 19.744141 35.658203 L 18.21875 36.960938 L 11.039062 29.78125 L 12.341797 28.253906 z M 30.5 29.107422 L 30.666016 29.496094 A 6.9568 6.9568 0 0 1 29.181641 37.203125 L 24.158203 42.226562 L 21.740234 36.583984 L 30.5 29.107422 z M 8.34375 34.751953 A 5 5 0 0 0 4.7285156 36.199219 C 2.4255156 38.502119 1.6911344 44.59415 1.6152344 45.28125 A 0.9988 0.9988 0 0 0 1.9003906 46.099609 A 0.9988 0.9988 0 0 0 2.71875 46.384766 C 3.40585 46.308866 9.4978812 45.574484 11.800781 43.271484 A 5 5 0 0 0 8.34375 34.751953 z M 8.21875 36.736328 A 3.0032 3.0032 0 0 1 10.386719 37.613281 A 3.0032 3.0032 0 0 1 10.386719 41.855469 C 9.1545188 43.087769 5.8892562 43.859991 3.7851562 44.212891 C 4.1373562 42.110291 4.9098312 38.847881 6.1445312 37.613281 A 3.0032 3.0032 0 0 1 8.21875 36.736328 z"/></svg>