<svg width="51" height="51" viewBox="0 0 51 51" fill="white" xmlns="http://www.w3.org/2000/svg">
<path d="M25.5 47.8125C19.5824 47.8125 13.9071 45.4617 9.72268 41.2773C5.53827 37.0929 3.1875 31.4176 3.1875 25.5C3.1875 19.5824 5.53827 13.9071 9.72268 9.72268C13.9071 5.53827 19.5824 3.1875 25.5 3.1875C31.4176 3.1875 37.0929 5.53827 41.2773 9.72268C45.4617 13.9071 47.8125 19.5824 47.8125 25.5C47.8125 31.4176 45.4617 37.0929 41.2773 41.2773C37.0929 45.4617 31.4176 47.8125 25.5 47.8125ZM25.5 51C32.263 51 38.749 48.3134 43.5312 43.5312C48.3134 38.749 51 32.263 51 25.5C51 18.737 48.3134 12.251 43.5312 7.46878C38.749 2.6866 32.263 0 25.5 0C18.737 0 12.251 2.6866 7.46878 7.46878C2.6866 12.251 0 18.737 0 25.5C0 32.263 2.6866 38.749 7.46878 43.5312C12.251 48.3134 18.737 51 25.5 51Z" fill="white"/>
<path d="M15.9375 19.9219C15.9375 18.8652 16.3573 17.8517 17.1045 17.1045C17.8517 16.3573 18.8652 15.9375 19.9219 15.9375C20.9786 15.9375 21.992 16.3573 22.7393 17.1045C23.4865 17.8517 23.9062 18.8652 23.9062 19.9219V31.0781C23.9062 32.1348 23.4865 33.1483 22.7393 33.8955C21.992 34.6427 20.9786 35.0625 19.9219 35.0625C18.8652 35.0625 17.8517 34.6427 17.1045 33.8955C16.3573 33.1483 15.9375 32.1348 15.9375 31.0781V19.9219ZM27.0938 19.9219C27.0938 18.8652 27.5135 17.8517 28.2607 17.1045C29.008 16.3573 30.0214 15.9375 31.0781 15.9375C32.1348 15.9375 33.1483 16.3573 33.8955 17.1045C34.6427 17.8517 35.0625 18.8652 35.0625 19.9219V31.0781C35.0625 32.1348 34.6427 33.1483 33.8955 33.8955C33.1483 34.6427 32.1348 35.0625 31.0781 35.0625C30.0214 35.0625 29.008 34.6427 28.2607 33.8955C27.5135 33.1483 27.0938 32.1348 27.0938 31.0781V19.9219Z" fill="white"/>
</svg>
