<svg width="53" height="53" viewBox="0 0 53 53" fill="none" xmlns="http://www.w3.org/2000/svg">
<path d="M53 26.5C53 33.5282 50.208 40.2686 45.2383 45.2383C40.2686 50.208 33.5282 53 26.5 53C19.4718 53 12.7314 50.208 7.76167 45.2383C2.79196 40.2686 0 33.5282 0 26.5C0 19.4718 2.79196 12.7314 7.76167 7.76167C12.7314 2.79196 19.4718 0 26.5 0C33.5282 0 40.2686 2.79196 45.2383 7.76167C50.208 12.7314 53 19.4718 53 26.5V26.5ZM22.4919 16.8706C22.2442 16.6942 21.9528 16.5895 21.6496 16.5678C21.3463 16.546 21.043 16.6082 20.7727 16.7474C20.5025 16.8867 20.2757 17.0976 20.1174 17.3571C19.959 17.6166 19.8752 17.9147 19.875 18.2188V34.7812C19.8752 35.0853 19.959 35.3834 20.1174 35.6429C20.2757 35.9024 20.5025 36.1133 20.7727 36.2526C21.043 36.3918 21.3463 36.454 21.6496 36.4322C21.9528 36.4105 22.2442 36.3058 22.4919 36.1294L34.0856 27.8482C34.3003 27.695 34.4753 27.4927 34.5961 27.2582C34.7168 27.0237 34.7798 26.7638 34.7798 26.5C34.7798 26.2362 34.7168 25.9763 34.5961 25.7418C34.4753 25.5073 34.3003 25.305 34.0856 25.1518L22.4919 16.8706V16.8706Z" fill="white"/>
</svg>
