<svg width="27" height="27" viewBox="0 0 27 27" fill="none" xmlns="http://www.w3.org/2000/svg">
<g clip-path="url(#clip0_172_11004)">
<path d="M12.6563 5.0625H16.0313C16.2551 5.0625 16.4697 4.9736 16.6279 4.81537C16.7861 4.65714 16.875 4.44253 16.875 4.21875V2.53125C16.875 2.30747 16.7861 2.09286 16.6279 1.93463C16.4697 1.77639 16.2551 1.6875 16.0313 1.6875H12.6563C12.4325 1.6875 12.2179 1.77639 12.0597 1.93463C11.9014 2.09286 11.8125 2.30747 11.8125 2.53125V4.21875C11.8125 4.44253 11.9014 4.65714 12.0597 4.81537C12.2179 4.9736 12.4325 5.0625 12.6563 5.0625ZM12.6563 11.8125H19.4063C19.6301 11.8125 19.8447 11.7236 20.0029 11.5654C20.1611 11.4071 20.25 11.1925 20.25 10.9688V9.28125C20.25 9.05747 20.1611 8.84286 20.0029 8.68463C19.8447 8.52639 19.6301 8.4375 19.4063 8.4375H12.6563C12.4325 8.4375 12.2179 8.52639 12.0597 8.68463C11.9014 8.84286 11.8125 9.05747 11.8125 9.28125V10.9688C11.8125 11.1925 11.9014 11.4071 12.0597 11.5654C12.2179 11.7236 12.4325 11.8125 12.6563 11.8125ZM26.1563 21.9375H12.6563C12.4325 21.9375 12.2179 22.0264 12.0597 22.1846C11.9014 22.3429 11.8125 22.5575 11.8125 22.7812V24.4688C11.8125 24.6925 11.9014 24.9071 12.0597 25.0654C12.2179 25.2236 12.4325 25.3125 12.6563 25.3125H26.1563C26.3801 25.3125 26.5947 25.2236 26.7529 25.0654C26.9111 24.9071 27 24.6925 27 24.4688V22.7812C27 22.5575 26.9111 22.3429 26.7529 22.1846C26.5947 22.0264 26.3801 21.9375 26.1563 21.9375ZM12.6563 18.5625H22.7813C23.0051 18.5625 23.2197 18.4736 23.3779 18.3154C23.5361 18.1571 23.625 17.9425 23.625 17.7188V16.0312C23.625 15.8075 23.5361 15.5929 23.3779 15.4346C23.2197 15.2764 23.0051 15.1875 22.7813 15.1875H12.6563C12.4325 15.1875 12.2179 15.2764 12.0597 15.4346C11.9014 15.5929 11.8125 15.8075 11.8125 16.0312V17.7188C11.8125 17.9425 11.9014 18.1571 12.0597 18.3154C12.2179 18.4736 12.4325 18.5625 12.6563 18.5625ZM9.28129 18.5625H6.75004V2.53125C6.75004 2.30747 6.66115 2.09286 6.50291 1.93463C6.34468 1.77639 6.13007 1.6875 5.90629 1.6875H4.21879C3.99501 1.6875 3.7804 1.77639 3.62217 1.93463C3.46394 2.09286 3.37504 2.30747 3.37504 2.53125V18.5625H0.843791C0.0954899 18.5625 -0.283143 19.4716 0.24842 20.0027L4.46717 25.0652C4.62539 25.2233 4.83991 25.3121 5.06359 25.3121C5.28728 25.3121 5.5018 25.2233 5.66002 25.0652L9.87877 20.0027C10.4072 19.4727 10.0312 18.5625 9.28129 18.5625Z" fill="grey"/>
</g>
<defs>
<clipPath id="clip0_172_11004">
<rect width="27" height="27" fill="grey"/>
</clipPath>
</defs>
</svg>
