<svg width="26" height="26" viewBox="0 0 26 26" fill="none" xmlns="http://www.w3.org/2000/svg">
<g clip-path="url(#clip0_172_25527)">
<path d="M1.25668 17.8375C1.30977 17.8375 1.35418 17.7953 1.36285 17.7368L1.65535 15.5463L1.36285 13.3049C1.35527 13.2464 1.30868 13.2041 1.2556 13.2041C1.20143 13.2041 1.15377 13.2474 1.14727 13.3049L0.891602 15.5463L1.14727 17.7357C1.15377 17.7953 1.20143 17.8375 1.2556 17.8375H1.25668Z" fill="#ADADAD"/>
<path d="M0.294667 17.0048C0.346667 17.0048 0.39 16.9658 0.397583 16.9073L0.624 15.5467L0.397583 14.16C0.39 14.1026 0.346667 14.0625 0.294667 14.0625C0.239417 14.0625 0.197167 14.1026 0.1885 14.16L0 15.5467L0.1885 16.9073C0.197167 16.9647 0.239417 17.0048 0.294667 17.0048Z" fill="#ADADAD"/>
<path d="M2.4049 12.8881C2.40273 12.855 2.38814 12.8239 2.36405 12.801C2.33996 12.7781 2.30813 12.7651 2.2749 12.7646C2.24171 12.7649 2.20986 12.7778 2.18589 12.8008C2.16192 12.8237 2.14765 12.855 2.14599 12.8881L1.90332 15.5466L2.14599 18.1076C2.14819 18.1406 2.16285 18.1715 2.187 18.194C2.21114 18.2166 2.24296 18.2291 2.27599 18.229C2.30911 18.2288 2.34094 18.216 2.36505 18.1933C2.38917 18.1706 2.4038 18.1396 2.40599 18.1066L2.68115 15.5466L2.40599 12.8881H2.4049Z" fill="#ADADAD"/>
<path d="M3.30624 18.3323C3.34478 18.3316 3.38168 18.3166 3.40973 18.2901C3.43777 18.2637 3.45495 18.2277 3.45791 18.1893L3.71899 15.547L3.45899 12.8149C3.45602 12.7763 3.43868 12.7402 3.41041 12.7137C3.38214 12.6872 3.34497 12.6723 3.30624 12.6719C3.2673 12.6718 3.22983 12.6868 3.20159 12.7136C3.17336 12.7404 3.15653 12.7771 3.15458 12.816L2.92383 15.547L3.15349 18.1893C3.15545 18.2284 3.17244 18.2652 3.2009 18.292C3.22937 18.3189 3.26711 18.3337 3.30624 18.3334V18.3323Z" fill="#ADADAD"/>
<path d="M4.3441 18.3748C4.38883 18.3749 4.4319 18.3579 4.46452 18.3273C4.49714 18.2967 4.51684 18.2548 4.5196 18.2102L4.76443 15.5462L4.5196 13.0112C4.51658 12.9668 4.49676 12.9252 4.46417 12.8948C4.43158 12.8644 4.38865 12.8476 4.3441 12.8477C4.29959 12.8476 4.25677 12.8647 4.2245 12.8953C4.19223 12.926 4.17299 12.9679 4.17077 13.0123L3.9541 15.5473L4.17077 18.2102C4.17299 18.2546 4.19223 18.2965 4.2245 18.3272C4.25677 18.3578 4.29959 18.3749 4.3441 18.3748Z" fill="#ADADAD"/>
<path d="M5.8179 15.5478L5.58823 11.4257C5.58522 11.3753 5.56319 11.3279 5.52659 11.2931C5.48999 11.2583 5.44156 11.2387 5.39107 11.2383C5.3405 11.2385 5.29192 11.258 5.25527 11.2928C5.21862 11.3277 5.19666 11.3752 5.1939 11.4257L4.99023 15.5478L5.1939 18.2106C5.19902 18.2593 5.22199 18.3045 5.2584 18.3372C5.29481 18.37 5.34207 18.3882 5.39107 18.3882C5.44006 18.3882 5.48732 18.37 5.52373 18.3372C5.56014 18.3045 5.58312 18.2593 5.58823 18.2106L5.8179 15.5478Z" fill="#ADADAD"/>
<path d="M6.44661 18.402C6.50271 18.402 6.55667 18.3804 6.59723 18.3417C6.6378 18.3029 6.66185 18.25 6.66436 18.194V18.1961L6.87994 15.5485L6.66436 10.4828C6.66045 10.4273 6.63565 10.3753 6.59493 10.3374C6.55422 10.2994 6.50064 10.2783 6.44498 10.2783C6.38933 10.2783 6.33574 10.2994 6.29503 10.3374C6.25432 10.3753 6.22951 10.4273 6.22561 10.4828L6.03711 15.5485L6.22669 18.1951C6.22976 18.2511 6.25434 18.3038 6.29532 18.3421C6.33629 18.3805 6.39049 18.4015 6.44661 18.4009V18.402Z" fill="#ADADAD"/>
<path d="M7.50888 9.83206C7.44674 9.83171 7.38688 9.85543 7.34185 9.89825C7.29681 9.94106 7.2701 9.99965 7.2673 10.0617L7.0918 15.5488L7.2673 18.1683C7.2701 18.2303 7.29685 18.2887 7.34192 18.3314C7.38699 18.374 7.44684 18.3975 7.50888 18.3969C7.571 18.3978 7.63101 18.3744 7.67613 18.3317C7.72126 18.289 7.74793 18.2304 7.75046 18.1683L7.95088 15.5488L7.75046 10.0617C7.7482 9.99946 7.72165 9.94056 7.6765 9.89763C7.63135 9.8547 7.57118 9.83117 7.50888 9.83206Z" fill="#ADADAD"/>
<path d="M8.58026 18.4021C8.64849 18.4033 8.71444 18.3776 8.76389 18.3306C8.81334 18.2836 8.84233 18.219 8.84459 18.1508V18.153L9.02876 15.5486L8.84459 9.87737C8.84233 9.80936 8.81349 9.74495 8.76428 9.69796C8.71506 9.65097 8.64938 9.62515 8.58134 9.62604C8.51314 9.62458 8.44714 9.65021 8.3978 9.69732C8.34846 9.74443 8.3198 9.80917 8.31809 9.87737L8.15234 15.5486L8.31809 18.153C8.32026 18.2927 8.43726 18.4021 8.58134 18.4021H8.58026Z" fill="#ADADAD"/>
<path d="M9.66109 18.4003C9.73487 18.4012 9.80606 18.3731 9.85934 18.3221C9.91262 18.271 9.94374 18.2011 9.946 18.1273V18.1295L10.1161 15.5501L9.946 10.0218C9.94318 9.94847 9.91182 9.8791 9.8586 9.82851C9.80538 9.77792 9.73451 9.75011 9.66109 9.75101C9.58748 9.74983 9.51633 9.77751 9.46287 9.82813C9.40942 9.87874 9.37791 9.94828 9.37509 10.0218L9.22559 15.5501L9.37617 18.1284C9.37942 18.2801 9.50509 18.3993 9.66109 18.3993V18.4003Z" fill="#ADADAD"/>
<path d="M11.2115 15.55L11.0577 10.2232C11.0549 10.1439 11.0211 10.0689 10.9636 10.0142C10.9061 9.95949 10.8294 9.92953 10.75 9.93072C10.6703 9.92925 10.5932 9.95923 10.5355 10.0142C10.4777 10.0691 10.4438 10.1446 10.4413 10.2243L10.3037 15.55L10.4413 18.1131C10.4441 18.1926 10.4781 18.2678 10.5358 18.3226C10.5936 18.3773 10.6705 18.4071 10.75 18.4056C10.8299 18.4068 10.9071 18.3764 10.9647 18.321C11.0223 18.2656 11.0557 18.1898 11.0577 18.1099V18.1131L11.2115 15.55Z" fill="#ADADAD"/>
<path d="M11.8466 18.4101C12.0254 18.4101 12.1727 18.2693 12.1759 18.096L12.3157 15.5512L12.1759 9.21371C12.1731 9.12855 12.1371 9.04788 12.0755 8.98896C12.014 8.93005 11.9318 8.89756 11.8466 8.89846C11.7614 8.89783 11.6792 8.93037 11.6176 8.9892C11.5559 9.04803 11.5196 9.12855 11.5162 9.21371L11.3916 15.549L11.5162 18.097C11.5194 18.2682 11.6679 18.4101 11.8466 18.4101Z" fill="#ADADAD"/>
<path d="M12.9397 8.30278C12.8485 8.3013 12.7603 8.33563 12.6941 8.39841C12.6279 8.46119 12.5889 8.54742 12.5855 8.63861L12.4414 15.5524L12.5866 18.0604C12.59 18.151 12.6287 18.2367 12.6945 18.299C12.7604 18.3614 12.848 18.3955 12.9387 18.394C13.0297 18.3952 13.1175 18.3605 13.1832 18.2975C13.2489 18.2345 13.2871 18.1481 13.2897 18.0571V18.0604L13.4478 15.5524L13.2897 8.6397C13.2871 8.54889 13.249 8.46271 13.1836 8.39971C13.1181 8.3367 13.0306 8.30189 12.9397 8.30278Z" fill="#ADADAD"/>
<path d="M13.9385 18.412L22.8012 18.4163C24.5681 18.4163 26.0003 17.0427 26.0003 15.3473C26.0003 13.6529 24.5681 12.2793 22.8012 12.2793C22.3635 12.2793 21.9454 12.3648 21.564 12.5176C21.3116 9.75292 18.8936 7.58301 15.9448 7.58301C15.2244 7.58301 14.5213 7.71951 13.9005 7.95026C13.659 8.04017 13.594 8.13226 13.5918 8.31101V18.0491C13.5952 18.1415 13.6323 18.2295 13.6962 18.2964C13.7601 18.3632 13.8463 18.4044 13.9385 18.412Z" fill="#ADADAD"/>
</g>
<defs>
<clipPath id="clip0_172_25527">
<rect width="26" height="26" fill="white"/>
</clipPath>
</defs>
</svg>
