<svg width="287" height="33" viewBox="0 0 287 33" fill="none" xmlns="http://www.w3.org/2000/svg">
<rect width="1.67037" height="1.54486" rx="0.772429" transform="matrix(-1 0 0 1 64.709 18.5391)" fill="white"/>
<rect width="1.67037" height="1.54486" rx="0.772429" transform="matrix(-1 0 0 1 64.709 15.4492)" fill="white"/>
<rect width="1.67037" height="1.54486" rx="0.772429" transform="matrix(-1 0 0 1 64.709 12.3594)" fill="white"/>
<rect width="1.67037" height="1.54486" rx="0.772429" transform="matrix(1 -8.08537e-08 -9.45255e-08 -1 45.6523 23.1719)" fill="white"/>
<rect width="1.67037" height="1.54486" rx="0.772429" transform="matrix(-1 0 0 1 64.709 9.26953)" fill="white"/>
<rect width="1.67037" height="1.54486" rx="0.772429" transform="matrix(1 -8.08537e-08 -9.45255e-08 -1 45.6523 26.2617)" fill="white"/>
<rect width="1.67037" height="1.54486" rx="0.772429" transform="matrix(-1 0 0 1 61.5078 18.5391)" fill="white"/>
<rect width="1.67037" height="1.54486" rx="0.772429" transform="matrix(-1 0 0 1 61.5078 15.4492)" fill="white"/>
<rect width="1.67037" height="1.54486" rx="0.772429" transform="matrix(-1 0 0 1 61.5078 12.3594)" fill="white"/>
<rect width="1.67037" height="1.54486" rx="0.772429" transform="matrix(1 -8.08537e-08 -9.45255e-08 -1 48.8496 23.1719)" fill="white"/>
<rect width="1.67037" height="1.54486" rx="0.772429" transform="matrix(-1 0 0 1 61.5078 9.26953)" fill="white"/>
<rect width="1.67037" height="1.54486" rx="0.772429" transform="matrix(1 -8.08537e-08 -9.45255e-08 -1 48.8496 26.2617)" fill="white"/>
<rect width="1.67037" height="1.54486" rx="0.772429" transform="matrix(-1 0 0 1 61.5078 6.17969)" fill="white"/>
<rect width="1.67037" height="1.54486" rx="0.772429" transform="matrix(1 -8.08537e-08 -9.45255e-08 -1 48.8496 29.3516)" fill="white"/>
<rect width="1.67037" height="1.54486" rx="0.772429" transform="matrix(-1 0 0 1 74.3125 18.5391)" fill="white"/>
<rect width="1.67037" height="1.54486" rx="0.772429" transform="matrix(-1 0 0 1 74.3125 15.4492)" fill="white"/>
<rect width="1.67037" height="1.54486" rx="0.772429" transform="matrix(-1 0 0 1 74.3125 12.3594)" fill="white"/>
<rect width="1.67037" height="1.54486" rx="0.772429" transform="matrix(1 -8.08537e-08 -9.45255e-08 -1 36.0449 23.1719)" fill="white"/>
<rect width="1.67037" height="1.54486" rx="0.772429" transform="matrix(-1 0 0 1 74.3125 9.26953)" fill="white"/>
<rect width="1.67037" height="1.54486" rx="0.772429" transform="matrix(1 -8.08537e-08 -9.45255e-08 -1 36.0449 26.2617)" fill="white"/>
<rect width="1.67037" height="1.54486" rx="0.772429" transform="matrix(-1 0 0 1 74.3125 6.17969)" fill="white"/>
<rect width="1.67037" height="1.54486" rx="0.772429" transform="matrix(1 -8.08537e-08 -9.45255e-08 -1 36.0449 29.3516)" fill="white"/>
<rect width="1.67037" height="1.54486" rx="0.772429" transform="matrix(-1 0 0 1 74.3125 3.08984)" fill="white"/>
<rect width="1.67037" height="1.54486" rx="0.772429" transform="matrix(1 -8.08537e-08 -9.45255e-08 -1 36.0449 32.4414)" fill="white"/>
<rect width="1.67037" height="1.54486" rx="0.772429" transform="matrix(-1 0 0 1 74.3125 0)" fill="white"/>
<rect width="1.67037" height="1.54486" rx="0.772429" transform="matrix(-1 0 0 1 44.3555 18.5391)" fill="white"/>
<rect width="1.67037" height="1.54486" rx="0.772429" transform="matrix(-1 0 0 1 44.3555 15.4492)" fill="white"/>
<rect width="1.67037" height="1.54486" rx="0.772429" transform="matrix(-1 0 0 1 44.3555 12.3594)" fill="white"/>
<rect width="1.67037" height="1.54486" rx="0.772429" transform="matrix(1 -8.08537e-08 -9.45255e-08 -1 65.998 23.1719)" fill="white"/>
<rect width="1.67037" height="1.54486" rx="0.772429" transform="matrix(-1 0 0 1 53.9629 18.5391)" fill="white"/>
<rect width="1.67037" height="1.54486" rx="0.772429" transform="matrix(-1 0 0 1 57.7744 18.5391)" fill="white"/>
<rect width="1.67037" height="1.54486" rx="0.772429" transform="matrix(-1 0 0 1 53.958 15.4492)" fill="white"/>
<rect width="1.67037" height="1.54486" rx="0.772429" transform="matrix(-1 0 0 1 71.1113 18.5391)" fill="white"/>
<rect width="1.67037" height="1.54486" rx="0.772429" transform="matrix(-1 0 0 1 71.1113 15.4492)" fill="white"/>
<rect width="1.67037" height="1.54486" rx="0.772429" transform="matrix(-1 0 0 1 71.1113 12.3594)" fill="white"/>
<rect width="1.67037" height="1.54486" rx="0.772429" transform="matrix(1 -8.08537e-08 -9.45255e-08 -1 39.2461 23.1719)" fill="white"/>
<rect width="1.67037" height="1.54486" rx="0.772429" transform="matrix(-1 0 0 1 41.1494 18.5391)" fill="white"/>
<rect width="1.67037" height="1.54486" rx="0.772429" transform="matrix(-1 0 0 1 41.1494 15.4492)" fill="white"/>
<rect width="1.67037" height="1.54486" rx="0.772429" transform="matrix(-1 0 0 1 41.1494 12.3594)" fill="white"/>
<rect width="1.67037" height="1.54486" rx="0.772429" transform="matrix(1 -8.08545e-08 -9.45246e-08 -1 69.2041 23.1719)" fill="white"/>
<rect width="1.67037" height="1.54486" rx="0.772429" transform="matrix(-1 0 0 1 41.1494 9.26953)" fill="white"/>
<rect width="1.67037" height="1.54486" rx="0.772429" transform="matrix(1 -8.08537e-08 -9.45255e-08 -1 69.2041 26.2617)" fill="white"/>
<rect width="1.67037" height="1.54486" rx="0.772429" transform="matrix(-1 0 0 1 50.7529 18.5391)" fill="white"/>
<rect width="1.67037" height="1.54486" rx="0.772429" transform="matrix(-1 0 0 1 50.7529 15.4492)" fill="white"/>
<rect width="1.67037" height="1.54486" rx="0.772429" transform="matrix(-1 0 0 1 50.7529 12.3594)" fill="white"/>
<rect width="1.67037" height="1.54486" rx="0.772429" transform="matrix(1 -8.08545e-08 -9.45246e-08 -1 59.6006 23.1719)" fill="white"/>
<rect width="1.67037" height="1.54486" rx="0.772429" transform="matrix(-1 0 0 1 80.7139 18.5391)" fill="white"/>
<rect width="1.67037" height="1.54486" rx="0.772429" transform="matrix(-1 0 0 1 83.8115 18.5391)" fill="white"/>
<rect width="1.67037" height="1.54486" rx="0.772429" transform="matrix(-1 0 0 1 87.1572 18.5391)" fill="white"/>
<rect width="1.67037" height="1.54486" rx="0.772429" transform="matrix(-1 0 0 1 80.7139 15.4492)" fill="white"/>
<rect width="1.67037" height="1.54486" rx="0.772429" transform="matrix(-1 0 0 1 83.8115 15.4492)" fill="white"/>
<rect width="1.67037" height="1.54486" rx="0.772429" transform="matrix(-1 0 0 1 80.7139 12.3594)" fill="white"/>
<rect width="1.67037" height="1.54486" rx="0.772429" transform="matrix(1 -8.08537e-08 -9.45255e-08 -1 29.6396 23.1719)" fill="white"/>
<rect width="1.67037" height="1.54486" rx="0.772429" transform="matrix(-1 0 0 1 67.9023 18.5391)" fill="white"/>
<rect width="1.67037" height="1.54486" rx="0.772429" transform="matrix(-1 0 0 1 67.9023 15.4492)" fill="white"/>
<rect width="1.67037" height="1.54486" rx="0.772429" transform="matrix(-1 0 0 1 67.9023 12.3594)" fill="white"/>
<rect width="1.67037" height="1.54486" rx="0.772429" transform="matrix(1 -8.08537e-08 -9.45255e-08 -1 42.4434 23.1719)" fill="white"/>
<rect width="1.67037" height="1.54486" rx="0.772429" transform="matrix(-1 0 0 1 67.9023 9.26953)" fill="white"/>
<rect width="1.67037" height="1.54486" rx="0.772429" transform="matrix(1 -8.08537e-08 -9.45255e-08 -1 42.4434 26.2617)" fill="white"/>
<rect width="1.67037" height="1.54486" rx="0.772429" transform="matrix(-1 0 0 1 67.9023 6.17969)" fill="white"/>
<rect width="1.67037" height="1.54486" rx="0.772429" transform="matrix(1 -8.08537e-08 -9.45255e-08 -1 42.4434 29.3516)" fill="white"/>
<rect width="1.67037" height="1.54486" rx="0.772429" transform="matrix(-1 0 0 1 37.9492 18.5391)" fill="white"/>
<rect width="1.67037" height="1.54486" rx="0.772429" transform="matrix(-1 0 0 1 37.9492 15.4492)" fill="white"/>
<rect width="1.67037" height="1.54486" rx="0.772429" transform="matrix(-1 0 0 1 37.9492 12.3594)" fill="white"/>
<rect width="1.67037" height="1.54486" rx="0.772429" transform="matrix(1 -8.08545e-08 -9.45246e-08 -1 72.4043 23.1719)" fill="white"/>
<rect width="1.67037" height="1.54486" rx="0.772429" transform="matrix(-1 0 0 1 37.9492 9.26953)" fill="white"/>
<rect width="1.67037" height="1.54486" rx="0.772429" transform="matrix(1 -8.08537e-08 -9.45255e-08 -1 72.4043 26.2617)" fill="white"/>
<rect width="1.67037" height="1.54486" rx="0.772429" transform="matrix(-1 0 0 1 37.9492 6.17969)" fill="white"/>
<rect width="1.67037" height="1.54486" rx="0.772429" transform="matrix(1 -8.08545e-08 -9.45246e-08 -1 72.4043 29.3516)" fill="white"/>
<rect width="1.67037" height="1.54486" rx="0.772429" transform="matrix(-1 0 0 1 37.9492 3.08984)" fill="white"/>
<rect width="1.67037" height="1.54486" rx="0.772429" transform="matrix(1 -8.08553e-08 -9.45236e-08 -1 72.4043 32.4414)" fill="white"/>
<rect width="1.67037" height="1.54486" rx="0.772429" transform="matrix(-1 0 0 1 34.6445 18.5391)" fill="white"/>
<rect width="1.67037" height="1.54486" rx="0.772429" transform="matrix(-1 0 0 1 34.6445 15.4492)" fill="white"/>
<rect width="1.67037" height="1.54486" rx="0.772429" transform="matrix(-1 0 0 1 34.6445 12.3594)" fill="white"/>
<rect width="1.67037" height="1.54486" rx="0.772429" transform="matrix(1 -8.08529e-08 -9.45265e-08 -1 75.7041 23.1719)" fill="white"/>
<rect width="1.67037" height="1.54486" rx="0.772429" transform="matrix(-1 0 0 1 34.6445 9.26953)" fill="white"/>
<rect width="1.67037" height="1.54486" rx="0.772429" transform="matrix(1 -8.08521e-08 -9.45274e-08 -1 75.7041 26.2617)" fill="white"/>
<rect width="1.67037" height="1.54486" rx="0.772429" transform="matrix(-1 0 0 1 34.6445 6.17969)" fill="white"/>
<rect width="1.67037" height="1.54486" rx="0.772429" transform="matrix(1 -8.08529e-08 -9.45265e-08 -1 75.7041 29.3516)" fill="white"/>
<rect width="1.67037" height="1.54486" rx="0.772429" transform="matrix(-1 0 0 1 31.3125 18.5391)" fill="white"/>
<rect width="1.67037" height="1.54486" rx="0.772429" transform="matrix(-1 0 0 1 31.3125 15.4492)" fill="white"/>
<rect width="1.67037" height="1.54486" rx="0.772429" transform="matrix(-1 0 0 1 31.3125 12.3594)" fill="white"/>
<rect width="1.67037" height="1.54486" rx="0.772429" transform="matrix(1 -8.08545e-08 -9.45246e-08 -1 79.0498 23.1719)" fill="white"/>
<rect width="1.67037" height="1.54486" rx="0.772429" transform="matrix(-1 0 0 1 27.9707 18.5391)" fill="white"/>
<rect width="1.67037" height="1.54486" rx="0.772429" transform="matrix(-1 0 0 1 24.625 18.5391)" fill="white"/>
<rect width="1.67037" height="1.54486" rx="0.772429" transform="matrix(-1 0 0 1 27.9707 15.4492)" fill="white"/>
<rect width="1.67037" height="1.54486" rx="0.772429" transform="matrix(-1 0 0 1 47.5518 18.5391)" fill="white"/>
<rect width="1.67037" height="1.54486" rx="0.772429" transform="matrix(-1 0 0 1 47.5518 15.4492)" fill="white"/>
<rect width="1.67037" height="1.54486" rx="0.772429" transform="matrix(-1 0 0 1 47.5518 12.3594)" fill="white"/>
<rect width="1.67037" height="1.54486" rx="0.772429" transform="matrix(1 -8.08537e-08 -9.45255e-08 -1 62.8018 23.1719)" fill="white"/>
<rect width="1.67037" height="1.54486" rx="0.772429" transform="matrix(-1 0 0 1 47.5518 9.26953)" fill="white"/>
<rect width="1.67037" height="1.54486" rx="0.772429" transform="matrix(1 -8.08529e-08 -9.45265e-08 -1 62.8018 26.2617)" fill="white"/>
<rect width="1.67037" height="1.54486" rx="0.772429" transform="matrix(-1 0 0 1 47.5518 6.17969)" fill="white"/>
<rect width="1.67037" height="1.54486" rx="0.772429" transform="matrix(1 -8.08537e-08 -9.45255e-08 -1 62.8018 29.3516)" fill="white"/>
<rect width="1.67037" height="1.54486" rx="0.772429" transform="matrix(-1 0 0 1 77.5088 18.5391)" fill="white"/>
<rect width="1.67037" height="1.54486" rx="0.772429" transform="matrix(-1 0 0 1 77.5088 15.4492)" fill="white"/>
<rect width="1.67037" height="1.54486" rx="0.772429" transform="matrix(-1 0 0 1 77.5088 12.3594)" fill="white"/>
<rect width="1.67037" height="1.54486" rx="0.772429" transform="matrix(1 -8.08537e-08 -9.45255e-08 -1 32.8408 23.1719)" fill="white"/>
<rect width="1.67037" height="1.54486" rx="0.772429" transform="matrix(-1 0 0 1 77.5088 9.26953)" fill="white"/>
<rect width="1.67037" height="1.54486" rx="0.772429" transform="matrix(1 -8.08537e-08 -9.45255e-08 -1 32.8408 26.2617)" fill="white"/>
<rect width="1.67037" height="1.54486" rx="0.772429" transform="matrix(-1 0 0 1 8.31445 18.5391)" fill="white"/>
<rect width="1.67037" height="1.54486" rx="0.772429" transform="matrix(-1 0 0 1 8.31445 15.4492)" fill="white"/>
<rect width="1.67037" height="1.54486" rx="0.772429" transform="matrix(-1 0 0 1 8.31445 12.3594)" fill="white"/>
<rect width="1.67037" height="1.54486" rx="0.772429" transform="matrix(-1 0 0 1 8.31445 9.26953)" fill="white"/>
<rect width="1.67037" height="1.54486" rx="0.772429" transform="matrix(-1 0 0 1 8.31445 6.17969)" fill="white"/>
<rect width="1.67037" height="1.54486" rx="0.772429" transform="matrix(-1 0 0 1 8.31445 3.08984)" fill="white"/>
<rect width="1.67037" height="1.54486" rx="0.772429" transform="matrix(-1 0 0 1 8.31445 0)" fill="white"/>
<rect width="1.67037" height="1.54486" rx="0.772429" transform="matrix(1 -8.08537e-08 -9.45255e-08 -1 0 23.1719)" fill="white"/>
<rect width="1.67037" height="1.54486" rx="0.772429" transform="matrix(-1 0 0 1 5.1084 18.5391)" fill="white"/>
<rect width="1.67037" height="1.54486" rx="0.772429" transform="matrix(-1 0 0 1 5.1084 15.4492)" fill="white"/>
<rect width="1.67037" height="1.54486" rx="0.772429" transform="matrix(-1 0 0 1 5.1084 12.3594)" fill="white"/>
<rect width="1.67037" height="1.54486" rx="0.772429" transform="matrix(1 -8.08537e-08 -9.45255e-08 -1 3.20898 23.1719)" fill="white"/>
<rect width="1.67037" height="1.54486" rx="0.772429" transform="matrix(1 -8.08537e-08 -9.45255e-08 -1 3.20898 26.2617)" fill="white"/>
<rect width="1.67037" height="1.54486" rx="0.772429" transform="matrix(-1 0 0 1 14.7207 18.5391)" fill="white"/>
<rect width="1.67037" height="1.54486" rx="0.772429" transform="matrix(-1 0 0 1 17.8135 18.5391)" fill="white"/>
<rect width="1.67037" height="1.54486" rx="0.772429" transform="matrix(-1 0 0 1 21.1641 18.5391)" fill="white"/>
<rect width="1.67037" height="1.54486" rx="0.772429" transform="matrix(-1 0 0 1 14.7207 15.4492)" fill="white"/>
<rect width="1.67037" height="1.54486" rx="0.772429" transform="matrix(-1 0 0 1 17.8135 15.4492)" fill="white"/>
<rect width="1.67037" height="1.54486" rx="0.772429" transform="matrix(-1 0 0 1 14.7207 12.3594)" fill="white"/>
<rect width="1.67037" height="1.54486" rx="0.772429" transform="matrix(-1 0 0 1 1.90723 18.5391)" fill="white"/>
<rect width="1.67037" height="1.54486" rx="0.772429" transform="matrix(-1 0 0 1 1.90723 15.4492)" fill="white"/>
<rect width="1.67037" height="1.54486" rx="0.772429" transform="matrix(-1 0 0 1 1.90723 12.3594)" fill="white"/>
<rect width="1.67037" height="1.54486" rx="0.772429" transform="matrix(-1 0 0 1 1.90723 9.26953)" fill="white"/>
<rect width="1.67037" height="1.54486" rx="0.772429" transform="matrix(-1 0 0 1 1.90723 6.17969)" fill="white"/>
<rect width="1.67037" height="1.54486" rx="0.772429" transform="matrix(1 -8.08537e-08 -9.45255e-08 -1 6.40625 23.1719)" fill="white"/>
<rect width="1.67037" height="1.54486" rx="0.772429" transform="matrix(1 -8.08537e-08 -9.45255e-08 -1 6.40625 26.2617)" fill="white"/>
<rect width="1.67037" height="1.54486" rx="0.772429" transform="matrix(1 -8.08537e-08 -9.45255e-08 -1 6.40625 29.3516)" fill="white"/>
<rect width="1.67037" height="1.54486" rx="0.772429" transform="matrix(1 -8.08537e-08 -9.45255e-08 -1 6.40625 32.4414)" fill="white"/>
<rect width="1.67037" height="1.54486" rx="0.772429" transform="matrix(1 -8.08537e-08 -9.45255e-08 -1 9.70996 23.1719)" fill="white"/>
<rect width="1.67037" height="1.54486" rx="0.772429" transform="matrix(1 -8.08537e-08 -9.45255e-08 -1 9.70996 26.2617)" fill="white"/>
<rect width="1.67037" height="1.54486" rx="0.772429" transform="matrix(1 -8.08537e-08 -9.45255e-08 -1 9.70996 29.3516)" fill="white"/>
<rect width="1.67037" height="1.54486" rx="0.772429" transform="matrix(1 -8.08537e-08 -9.45255e-08 -1 13.043 23.1719)" fill="white"/>
<rect width="1.67037" height="1.54486" rx="0.772429" transform="matrix(-1 0 0 1 11.5107 18.5391)" fill="white"/>
<rect width="1.67037" height="1.54486" rx="0.772429" transform="matrix(-1 0 0 1 11.5107 15.4492)" fill="white"/>
<rect width="1.67037" height="1.54486" rx="0.772429" transform="matrix(-1 0 0 1 11.5107 12.3594)" fill="white"/>
<rect width="1.67037" height="1.54486" rx="0.772429" transform="matrix(-1 0 0 1 11.5107 9.26953)" fill="white"/>
<rect width="1.67037" height="1.54486" rx="0.772429" transform="matrix(-1 0 0 1 125.797 18.5391)" fill="white"/>
<rect width="1.67037" height="1.54486" rx="0.772429" transform="matrix(-1 0 0 1 125.797 15.4492)" fill="white"/>
<rect width="1.67037" height="1.54486" rx="0.772429" transform="matrix(-1 0 0 1 125.797 12.3594)" fill="white"/>
<rect width="1.67037" height="1.54486" rx="0.772429" transform="matrix(1 -8.08545e-08 -9.45246e-08 -1 111.076 23.1719)" fill="white"/>
<rect width="1.67037" height="1.54486" rx="0.772429" transform="matrix(-1 0 0 1 125.797 9.26953)" fill="white"/>
<rect width="1.67037" height="1.54486" rx="0.772429" transform="matrix(1 -8.08537e-08 -9.45255e-08 -1 111.076 26.2617)" fill="white"/>
<rect width="1.67037" height="1.54486" rx="0.772429" transform="matrix(-1 0 0 1 122.592 18.5391)" fill="white"/>
<rect width="1.67037" height="1.54486" rx="0.772429" transform="matrix(-1 0 0 1 122.592 15.4492)" fill="white"/>
<rect width="1.67037" height="1.54486" rx="0.772429" transform="matrix(-1 0 0 1 122.592 12.3594)" fill="white"/>
<rect width="1.67037" height="1.54486" rx="0.772429" transform="matrix(1 -8.08545e-08 -9.45246e-08 -1 114.281 23.1719)" fill="white"/>
<rect width="1.67037" height="1.54486" rx="0.772429" transform="matrix(-1 0 0 1 122.592 9.26953)" fill="white"/>
<rect width="1.67037" height="1.54486" rx="0.772429" transform="matrix(1 -8.08537e-08 -9.45255e-08 -1 114.281 26.2617)" fill="white"/>
<rect width="1.67037" height="1.54486" rx="0.772429" transform="matrix(-1 0 0 1 122.592 6.17969)" fill="white"/>
<rect width="1.67037" height="1.54486" rx="0.772429" transform="matrix(1 -8.08545e-08 -9.45246e-08 -1 114.281 29.3516)" fill="white"/>
<rect width="1.67037" height="1.54486" rx="0.772429" transform="matrix(-1 0 0 1 135.392 18.5391)" fill="white"/>
<rect width="1.67037" height="1.54486" rx="0.772429" transform="matrix(-1 0 0 1 135.392 15.4492)" fill="white"/>
<rect width="1.67037" height="1.54486" rx="0.772429" transform="matrix(-1 0 0 1 135.392 12.3594)" fill="white"/>
<rect width="1.67037" height="1.54486" rx="0.772429" transform="matrix(1 -8.08545e-08 -9.45246e-08 -1 101.473 23.1719)" fill="white"/>
<rect width="1.67037" height="1.54486" rx="0.772429" transform="matrix(-1 0 0 1 135.392 9.26953)" fill="white"/>
<rect width="1.67037" height="1.54486" rx="0.772429" transform="matrix(1 -8.08537e-08 -9.45255e-08 -1 101.473 26.2617)" fill="white"/>
<rect width="1.67037" height="1.54486" rx="0.772429" transform="matrix(-1 0 0 1 135.392 6.17969)" fill="white"/>
<rect width="1.67037" height="1.54486" rx="0.772429" transform="matrix(1 -8.08545e-08 -9.45246e-08 -1 101.473 29.3516)" fill="white"/>
<rect width="1.67037" height="1.54486" rx="0.772429" transform="matrix(-1 0 0 1 135.392 3.08984)" fill="white"/>
<rect width="1.67037" height="1.54486" rx="0.772429" transform="matrix(1 -8.08553e-08 -9.45236e-08 -1 101.473 32.4414)" fill="white"/>
<rect width="1.67037" height="1.54486" rx="0.772429" transform="matrix(-1 0 0 1 135.392 0)" fill="white"/>
<rect width="1.67037" height="1.54486" rx="0.772429" transform="matrix(-1 0 0 1 109.783 18.5391)" fill="white"/>
<rect width="1.67037" height="1.54486" rx="0.772429" transform="matrix(-1 0 0 1 109.783 15.4492)" fill="white"/>
<rect width="1.67037" height="1.54486" rx="0.772429" transform="matrix(-1 0 0 1 109.783 12.3594)" fill="white"/>
<rect width="1.67037" height="1.54486" rx="0.772429" transform="matrix(1 -8.08529e-08 -9.45265e-08 -1 127.089 23.1719)" fill="white"/>
<rect width="1.67037" height="1.54486" rx="0.772429" transform="matrix(-1 0 0 1 119.391 18.5391)" fill="white"/>
<rect width="1.67037" height="1.54486" rx="0.772429" transform="matrix(-1 0 0 1 119.391 15.4492)" fill="white"/>
<rect width="1.67037" height="1.54486" rx="0.772429" transform="matrix(-1 0 0 1 132.194 18.5391)" fill="white"/>
<rect width="1.67037" height="1.54486" rx="0.772429" transform="matrix(-1 0 0 1 132.194 15.4492)" fill="white"/>
<rect width="1.67037" height="1.54486" rx="0.772429" transform="matrix(-1 0 0 1 132.194 12.3594)" fill="white"/>
<rect width="1.67037" height="1.54486" rx="0.772429" transform="matrix(1 -8.08529e-08 -9.45265e-08 -1 104.674 23.1719)" fill="white"/>
<rect width="1.67037" height="1.54486" rx="0.772429" transform="matrix(-1 0 0 1 106.578 18.5391)" fill="white"/>
<rect width="1.67037" height="1.54486" rx="0.772429" transform="matrix(-1 0 0 1 106.578 15.4492)" fill="white"/>
<rect width="1.67037" height="1.54486" rx="0.772429" transform="matrix(-1 0 0 1 106.578 12.3594)" fill="white"/>
<rect width="1.67037" height="1.54486" rx="0.772429" transform="matrix(1 -8.08545e-08 -9.45246e-08 -1 130.286 23.1719)" fill="white"/>
<rect width="1.67037" height="1.54486" rx="0.772429" transform="matrix(-1 0 0 1 106.578 9.26953)" fill="white"/>
<rect width="1.67037" height="1.54486" rx="0.772429" transform="matrix(1 -8.08537e-08 -9.45255e-08 -1 130.286 26.2617)" fill="white"/>
<rect width="1.67037" height="1.54486" rx="0.772429" transform="matrix(-1 0 0 1 116.189 18.5391)" fill="white"/>
<rect width="1.67037" height="1.54486" rx="0.772429" transform="matrix(-1 0 0 1 116.189 15.4492)" fill="white"/>
<rect width="1.67037" height="1.54486" rx="0.772429" transform="matrix(-1 0 0 1 116.189 12.3594)" fill="white"/>
<rect width="1.67037" height="1.54486" rx="0.772429" transform="matrix(1 -8.08545e-08 -9.45246e-08 -1 120.679 23.1719)" fill="white"/>
<rect width="1.67037" height="1.54486" rx="0.772429" transform="matrix(-1 0 0 1 141.802 18.5391)" fill="white"/>
<rect width="1.67037" height="1.54486" rx="0.772429" transform="matrix(-1 0 0 1 144.899 18.5391)" fill="white"/>
<rect width="1.67037" height="1.54486" rx="0.772429" transform="matrix(-1 0 0 1 141.802 15.4492)" fill="white"/>
<rect width="1.67037" height="1.54486" rx="0.772429" transform="matrix(-1 0 0 1 144.899 15.4492)" fill="white"/>
<rect width="1.67037" height="1.54486" rx="0.772429" transform="matrix(-1 0 0 1 141.802 12.3594)" fill="white"/>
<rect width="1.67037" height="1.54486" rx="0.772429" transform="matrix(1 -8.08529e-08 -9.45265e-08 -1 95.0713 23.1719)" fill="white"/>
<rect width="1.67037" height="1.54486" rx="0.772429" transform="matrix(-1 0 0 1 128.993 18.5391)" fill="white"/>
<rect width="1.67037" height="1.54486" rx="0.772429" transform="matrix(-1 0 0 1 128.993 15.4492)" fill="white"/>
<rect width="1.67037" height="1.54486" rx="0.772429" transform="matrix(-1 0 0 1 128.993 12.3594)" fill="white"/>
<rect width="1.67037" height="1.54486" rx="0.772429" transform="matrix(1 -8.08545e-08 -9.45246e-08 -1 107.875 23.1719)" fill="white"/>
<rect width="1.67037" height="1.54486" rx="0.772429" transform="matrix(-1 0 0 1 128.993 9.26953)" fill="white"/>
<rect width="1.67037" height="1.54486" rx="0.772429" transform="matrix(1 -8.08537e-08 -9.45255e-08 -1 107.875 26.2617)" fill="white"/>
<rect width="1.67037" height="1.54486" rx="0.772429" transform="matrix(-1 0 0 1 128.993 6.17969)" fill="white"/>
<rect width="1.67037" height="1.54486" rx="0.772429" transform="matrix(1 -8.08545e-08 -9.45246e-08 -1 107.875 29.3516)" fill="white"/>
<rect width="1.67037" height="1.54486" rx="0.772429" transform="matrix(-1 0 0 1 103.374 18.5391)" fill="white"/>
<rect width="1.67037" height="1.54486" rx="0.772429" transform="matrix(-1 0 0 1 103.374 15.4492)" fill="white"/>
<rect width="1.67037" height="1.54486" rx="0.772429" transform="matrix(-1 0 0 1 103.374 12.3594)" fill="white"/>
<rect width="1.67037" height="1.54486" rx="0.772429" transform="matrix(1 -8.08545e-08 -9.45246e-08 -1 133.496 23.1719)" fill="white"/>
<rect width="1.67037" height="1.54486" rx="0.772429" transform="matrix(-1 0 0 1 103.374 9.26953)" fill="white"/>
<rect width="1.67037" height="1.54486" rx="0.772429" transform="matrix(1 -8.08537e-08 -9.45255e-08 -1 133.496 26.2617)" fill="white"/>
<rect width="1.67037" height="1.54486" rx="0.772429" transform="matrix(-1 0 0 1 103.374 6.17969)" fill="white"/>
<rect width="1.67037" height="1.54486" rx="0.772429" transform="matrix(1 -8.08545e-08 -9.45246e-08 -1 133.496 29.3516)" fill="white"/>
<rect width="1.67037" height="1.54486" rx="0.772429" transform="matrix(-1 0 0 1 103.374 3.08984)" fill="white"/>
<rect width="1.67037" height="1.54486" rx="0.772429" transform="matrix(1 -8.08553e-08 -9.45236e-08 -1 133.496 32.4414)" fill="white"/>
<rect width="1.67037" height="1.54486" rx="0.772429" transform="matrix(-1 0 0 1 100.085 18.5391)" fill="white"/>
<rect width="1.67037" height="1.54486" rx="0.772429" transform="matrix(-1 0 0 1 100.085 15.4492)" fill="white"/>
<rect width="1.67037" height="1.54486" rx="0.772429" transform="matrix(-1 0 0 1 100.085 12.3594)" fill="white"/>
<rect width="1.67037" height="1.54486" rx="0.772429" transform="matrix(1 -8.08545e-08 -9.45246e-08 -1 136.796 23.1719)" fill="white"/>
<rect width="1.67037" height="1.54486" rx="0.772429" transform="matrix(-1 0 0 1 100.085 9.26953)" fill="white"/>
<rect width="1.67037" height="1.54486" rx="0.772429" transform="matrix(1 -8.08537e-08 -9.45255e-08 -1 136.796 26.2617)" fill="white"/>
<rect width="1.67037" height="1.54486" rx="0.772429" transform="matrix(-1 0 0 1 100.085 6.17969)" fill="white"/>
<rect width="1.67037" height="1.54486" rx="0.772429" transform="matrix(1 -8.08545e-08 -9.45246e-08 -1 136.796 29.3516)" fill="white"/>
<rect width="1.67037" height="1.54486" rx="0.772429" transform="matrix(-1 0 0 1 96.7402 18.5391)" fill="white"/>
<rect width="1.67037" height="1.54486" rx="0.772429" transform="matrix(-1 0 0 1 96.7402 15.4492)" fill="white"/>
<rect width="1.67037" height="1.54486" rx="0.772429" transform="matrix(-1 0 0 1 96.7402 12.3594)" fill="white"/>
<rect width="1.67037" height="1.54486" rx="0.772429" transform="matrix(1 -8.08545e-08 -9.45246e-08 -1 140.133 23.1719)" fill="white"/>
<rect width="1.67037" height="1.54486" rx="0.772429" transform="matrix(-1 0 0 1 93.4023 18.5391)" fill="white"/>
<rect width="1.67037" height="1.54486" rx="0.772429" transform="matrix(-1 0 0 1 90.0615 18.5391)" fill="white"/>
<rect width="1.67037" height="1.54486" rx="0.772429" transform="matrix(-1 0 0 1 93.4023 15.4492)" fill="white"/>
<rect width="1.67037" height="1.54486" rx="0.772429" transform="matrix(-1 0 0 1 112.98 18.5391)" fill="white"/>
<rect width="1.67037" height="1.54486" rx="0.772429" transform="matrix(-1 0 0 1 112.98 15.4492)" fill="white"/>
<rect width="1.67037" height="1.54486" rx="0.772429" transform="matrix(-1 0 0 1 112.98 12.3594)" fill="white"/>
<rect width="1.67037" height="1.54486" rx="0.772429" transform="matrix(1 -8.08529e-08 -9.45265e-08 -1 123.893 23.1719)" fill="white"/>
<rect width="1.67037" height="1.54486" rx="0.772429" transform="matrix(-1 0 0 1 112.98 9.26953)" fill="white"/>
<rect width="1.67037" height="1.54486" rx="0.772429" transform="matrix(1 -8.08521e-08 -9.45274e-08 -1 123.893 26.2617)" fill="white"/>
<rect width="1.67037" height="1.54486" rx="0.772429" transform="matrix(-1 0 0 1 112.98 6.17969)" fill="white"/>
<rect width="1.67037" height="1.54486" rx="0.772429" transform="matrix(1 -8.08529e-08 -9.45265e-08 -1 123.893 29.3516)" fill="white"/>
<rect width="1.67037" height="1.54486" rx="0.772429" transform="matrix(-1 0 0 1 138.597 18.5391)" fill="white"/>
<rect width="1.67037" height="1.54486" rx="0.772429" transform="matrix(-1 0 0 1 138.597 15.4492)" fill="white"/>
<rect width="1.67037" height="1.54486" rx="0.772429" transform="matrix(-1 0 0 1 138.597 12.3594)" fill="white"/>
<rect width="1.67037" height="1.54486" rx="0.772429" transform="matrix(1 -8.08545e-08 -9.45246e-08 -1 98.2686 23.1719)" fill="white"/>
<rect width="1.67037" height="1.54486" rx="0.772429" transform="matrix(-1 0 0 1 138.597 9.26953)" fill="white"/>
<rect width="1.67037" height="1.54486" rx="0.772429" transform="matrix(1 -8.08537e-08 -9.45255e-08 -1 98.2686 26.2617)" fill="white"/>
<rect width="1.62966" height="1.50721" rx="0.753604" transform="matrix(-1 0 0 1 208.133 18.875)" fill="white"/>
<rect width="1.62966" height="1.50721" rx="0.753604" transform="matrix(-1 0 0 1 208.133 15.8633)" fill="white"/>
<rect width="1.62966" height="1.50721" rx="0.753604" transform="matrix(-1 0 0 1 208.133 12.8477)" fill="white"/>
<rect width="1.62966" height="1.50721" rx="0.753604" transform="matrix(1 -8.08537e-08 -9.45255e-08 -1 189.542 23.3945)" fill="white"/>
<rect width="1.62966" height="1.50721" rx="0.753604" transform="matrix(-1 0 0 1 208.133 9.83203)" fill="white"/>
<rect width="1.62966" height="1.50721" rx="0.753604" transform="matrix(1 -8.08537e-08 -9.45255e-08 -1 189.542 26.4102)" fill="white"/>
<rect width="1.62966" height="1.50721" rx="0.753604" transform="matrix(-1 0 0 1 205.014 18.875)" fill="white"/>
<rect width="1.62966" height="1.50721" rx="0.753604" transform="matrix(-1 0 0 1 205.014 15.8633)" fill="white"/>
<rect width="1.62966" height="1.50721" rx="0.753604" transform="matrix(-1 0 0 1 205.014 12.8477)" fill="white"/>
<rect width="1.62966" height="1.50721" rx="0.753604" transform="matrix(1 -8.08537e-08 -9.45255e-08 -1 192.665 23.3945)" fill="white"/>
<rect width="1.62966" height="1.50721" rx="0.753604" transform="matrix(-1 0 0 1 205.014 9.83203)" fill="white"/>
<rect width="1.62966" height="1.50721" rx="0.753604" transform="matrix(1 -8.08537e-08 -9.45255e-08 -1 192.665 26.4102)" fill="white"/>
<rect width="1.62966" height="1.50721" rx="0.753604" transform="matrix(-1 0 0 1 205.014 6.82031)" fill="white"/>
<rect width="1.62966" height="1.50721" rx="0.753604" transform="matrix(1 -8.08537e-08 -9.45255e-08 -1 192.665 29.4258)" fill="white"/>
<rect width="1.62966" height="1.50721" rx="0.753604" transform="matrix(-1 0 0 1 217.509 18.875)" fill="white"/>
<rect width="1.62966" height="1.50721" rx="0.753604" transform="matrix(-1 0 0 1 217.509 15.8633)" fill="white"/>
<rect width="1.62966" height="1.50721" rx="0.753604" transform="matrix(-1 0 0 1 217.509 12.8477)" fill="white"/>
<rect width="1.62966" height="1.50721" rx="0.753604" transform="matrix(1 -8.08537e-08 -9.45255e-08 -1 180.175 23.3945)" fill="white"/>
<rect width="1.62966" height="1.50721" rx="0.753604" transform="matrix(-1 0 0 1 217.509 9.83203)" fill="white"/>
<rect width="1.62966" height="1.50721" rx="0.753604" transform="matrix(1 -8.08537e-08 -9.45255e-08 -1 180.175 26.4102)" fill="white"/>
<rect width="1.62966" height="1.50721" rx="0.753604" transform="matrix(-1 0 0 1 217.509 6.82031)" fill="white"/>
<rect width="1.62966" height="1.50721" rx="0.753604" transform="matrix(1 -8.08537e-08 -9.45255e-08 -1 180.175 29.4258)" fill="white"/>
<rect width="1.62966" height="1.50721" rx="0.753604" transform="matrix(-1 0 0 1 217.509 3.80469)" fill="white"/>
<rect width="1.62966" height="1.50721" rx="0.753604" transform="matrix(1 -8.08537e-08 -9.45255e-08 -1 180.175 32.4414)" fill="white"/>
<rect width="1.62966" height="1.50721" rx="0.753604" transform="matrix(-1 0 0 1 217.509 0.789062)" fill="white"/>
<rect width="1.62966" height="1.50721" rx="0.753604" transform="matrix(-1 0 0 1 188.278 18.875)" fill="white"/>
<rect width="1.62966" height="1.50721" rx="0.753604" transform="matrix(-1 0 0 1 188.278 15.8633)" fill="white"/>
<rect width="1.62966" height="1.50721" rx="0.753604" transform="matrix(-1 0 0 1 188.278 12.8477)" fill="white"/>
<rect width="1.62966" height="1.50721" rx="0.753604" transform="matrix(1 -8.08537e-08 -9.45255e-08 -1 209.393 23.3945)" fill="white"/>
<rect width="1.62966" height="1.50721" rx="0.753604" transform="matrix(-1 0 0 1 197.654 18.875)" fill="white"/>
<rect width="1.62966" height="1.50721" rx="0.753604" transform="matrix(-1 0 0 1 201.371 18.875)" fill="white"/>
<rect width="1.62966" height="1.50721" rx="0.753604" transform="matrix(-1 0 0 1 197.65 15.8633)" fill="white"/>
<rect width="1.62966" height="1.50721" rx="0.753604" transform="matrix(-1 0 0 1 214.386 18.875)" fill="white"/>
<rect width="1.62966" height="1.50721" rx="0.753604" transform="matrix(-1 0 0 1 214.386 15.8633)" fill="white"/>
<rect width="1.62966" height="1.50721" rx="0.753604" transform="matrix(-1 0 0 1 214.386 12.8477)" fill="white"/>
<rect width="1.62966" height="1.50721" rx="0.753604" transform="matrix(1 -8.08537e-08 -9.45255e-08 -1 183.297 23.3945)" fill="white"/>
<rect width="1.62966" height="1.50721" rx="0.753604" transform="matrix(-1 0 0 1 185.147 18.875)" fill="white"/>
<rect width="1.62966" height="1.50721" rx="0.753604" transform="matrix(-1 0 0 1 185.147 15.8633)" fill="white"/>
<rect width="1.62966" height="1.50721" rx="0.753604" transform="matrix(-1 0 0 1 185.147 12.8477)" fill="white"/>
<rect width="1.62966" height="1.50721" rx="0.753604" transform="matrix(1 -8.08545e-08 -9.45246e-08 -1 212.519 23.3945)" fill="white"/>
<rect width="1.62966" height="1.50721" rx="0.753604" transform="matrix(-1 0 0 1 185.147 9.83203)" fill="white"/>
<rect width="1.62966" height="1.50721" rx="0.753604" transform="matrix(1 -8.08537e-08 -9.45255e-08 -1 212.519 26.4102)" fill="white"/>
<rect width="1.62966" height="1.50721" rx="0.753604" transform="matrix(-1 0 0 1 194.527 18.875)" fill="white"/>
<rect width="1.62966" height="1.50721" rx="0.753604" transform="matrix(-1 0 0 1 194.527 15.8633)" fill="white"/>
<rect width="1.62966" height="1.50721" rx="0.753604" transform="matrix(-1 0 0 1 194.527 12.8477)" fill="white"/>
<rect width="1.62966" height="1.50721" rx="0.753604" transform="matrix(1 -8.08545e-08 -9.45246e-08 -1 203.147 23.3945)" fill="white"/>
<rect width="1.62966" height="1.50721" rx="0.753604" transform="matrix(-1 0 0 1 223.753 18.875)" fill="white"/>
<rect width="1.62966" height="1.50721" rx="0.753604" transform="matrix(-1 0 0 1 226.772 18.875)" fill="white"/>
<rect width="1.62966" height="1.50721" rx="0.753604" transform="matrix(-1 0 0 1 230.04 18.875)" fill="white"/>
<rect width="1.62966" height="1.50721" rx="0.753604" transform="matrix(-1 0 0 1 223.753 15.8633)" fill="white"/>
<rect width="1.62966" height="1.50721" rx="0.753604" transform="matrix(-1 0 0 1 226.772 15.8633)" fill="white"/>
<rect width="1.62966" height="1.50721" rx="0.753604" transform="matrix(-1 0 0 1 223.753 12.8477)" fill="white"/>
<rect width="1.62966" height="1.50721" rx="0.753604" transform="matrix(1 -8.08537e-08 -9.45255e-08 -1 173.921 23.3945)" fill="white"/>
<rect width="1.62966" height="1.50721" rx="0.753604" transform="matrix(-1 0 0 1 211.255 18.875)" fill="white"/>
<rect width="1.62966" height="1.50721" rx="0.753604" transform="matrix(-1 0 0 1 211.255 15.8633)" fill="white"/>
<rect width="1.62966" height="1.50721" rx="0.753604" transform="matrix(-1 0 0 1 211.255 12.8477)" fill="white"/>
<rect width="1.62966" height="1.50721" rx="0.753604" transform="matrix(1 -8.08537e-08 -9.45255e-08 -1 186.416 23.3945)" fill="white"/>
<rect width="1.62966" height="1.50721" rx="0.753604" transform="matrix(-1 0 0 1 211.255 9.83203)" fill="white"/>
<rect width="1.62966" height="1.50721" rx="0.753604" transform="matrix(1 -8.08537e-08 -9.45255e-08 -1 186.416 26.4102)" fill="white"/>
<rect width="1.62966" height="1.50721" rx="0.753604" transform="matrix(-1 0 0 1 211.255 6.82031)" fill="white"/>
<rect width="1.62966" height="1.50721" rx="0.753604" transform="matrix(1 -8.08537e-08 -9.45255e-08 -1 186.416 29.4258)" fill="white"/>
<rect width="1.62966" height="1.50721" rx="0.753604" transform="matrix(-1 0 0 1 182.029 18.875)" fill="white"/>
<rect width="1.62966" height="1.50721" rx="0.753604" transform="matrix(-1 0 0 1 182.029 15.8633)" fill="white"/>
<rect width="1.62966" height="1.50721" rx="0.753604" transform="matrix(-1 0 0 1 182.029 12.8477)" fill="white"/>
<rect width="1.62966" height="1.50721" rx="0.753604" transform="matrix(1 -8.08545e-08 -9.45246e-08 -1 215.65 23.3945)" fill="white"/>
<rect width="1.62966" height="1.50721" rx="0.753604" transform="matrix(-1 0 0 1 182.029 9.83203)" fill="white"/>
<rect width="1.62966" height="1.50721" rx="0.753604" transform="matrix(1 -8.08537e-08 -9.45255e-08 -1 215.65 26.4102)" fill="white"/>
<rect width="1.62966" height="1.50721" rx="0.753604" transform="matrix(-1 0 0 1 182.029 6.82031)" fill="white"/>
<rect width="1.62966" height="1.50721" rx="0.753604" transform="matrix(1 -8.08545e-08 -9.45246e-08 -1 215.65 29.4258)" fill="white"/>
<rect width="1.62966" height="1.50721" rx="0.753604" transform="matrix(-1 0 0 1 182.029 3.80469)" fill="white"/>
<rect width="1.62966" height="1.50721" rx="0.753604" transform="matrix(1 -8.08553e-08 -9.45236e-08 -1 215.65 32.4414)" fill="white"/>
<rect width="1.62966" height="1.50721" rx="0.753604" transform="matrix(-1 0 0 1 178.808 18.875)" fill="white"/>
<rect width="1.62966" height="1.50721" rx="0.753604" transform="matrix(-1 0 0 1 178.808 15.8633)" fill="white"/>
<rect width="1.62966" height="1.50721" rx="0.753604" transform="matrix(-1 0 0 1 178.808 12.8477)" fill="white"/>
<rect width="1.62966" height="1.50721" rx="0.753604" transform="matrix(1 -8.08529e-08 -9.45265e-08 -1 218.863 23.3945)" fill="white"/>
<rect width="1.62966" height="1.50721" rx="0.753604" transform="matrix(-1 0 0 1 178.808 9.83203)" fill="white"/>
<rect width="1.62966" height="1.50721" rx="0.753604" transform="matrix(1 -8.08521e-08 -9.45274e-08 -1 218.863 26.4102)" fill="white"/>
<rect width="1.62966" height="1.50721" rx="0.753604" transform="matrix(-1 0 0 1 178.808 6.82031)" fill="white"/>
<rect width="1.62966" height="1.50721" rx="0.753604" transform="matrix(1 -8.08529e-08 -9.45265e-08 -1 218.863 29.4258)" fill="white"/>
<rect width="1.62966" height="1.50721" rx="0.753604" transform="matrix(-1 0 0 1 175.549 18.875)" fill="white"/>
<rect width="1.62966" height="1.50721" rx="0.753604" transform="matrix(-1 0 0 1 175.549 15.8633)" fill="white"/>
<rect width="1.62966" height="1.50721" rx="0.753604" transform="matrix(-1 0 0 1 175.549 12.8477)" fill="white"/>
<rect width="1.62966" height="1.50721" rx="0.753604" transform="matrix(1 -8.08545e-08 -9.45246e-08 -1 222.122 23.3945)" fill="white"/>
<rect width="1.62966" height="1.50721" rx="0.753604" transform="matrix(-1 0 0 1 172.299 18.875)" fill="white"/>
<rect width="1.62966" height="1.50721" rx="0.753604" transform="matrix(-1 0 0 1 169.03 18.875)" fill="white"/>
<rect width="1.62966" height="1.50721" rx="0.753604" transform="matrix(-1 0 0 1 172.299 15.8633)" fill="white"/>
<rect width="1.62966" height="1.50721" rx="0.753604" transform="matrix(-1 0 0 1 191.404 18.875)" fill="white"/>
<rect width="1.62966" height="1.50721" rx="0.753604" transform="matrix(-1 0 0 1 191.404 15.8633)" fill="white"/>
<rect width="1.62966" height="1.50721" rx="0.753604" transform="matrix(-1 0 0 1 191.404 12.8477)" fill="white"/>
<rect width="1.62966" height="1.50721" rx="0.753604" transform="matrix(1 -8.08537e-08 -9.45255e-08 -1 206.278 23.3945)" fill="white"/>
<rect width="1.62966" height="1.50721" rx="0.753604" transform="matrix(-1 0 0 1 191.404 9.83203)" fill="white"/>
<rect width="1.62966" height="1.50721" rx="0.753604" transform="matrix(1 -8.08529e-08 -9.45265e-08 -1 206.278 26.4102)" fill="white"/>
<rect width="1.62966" height="1.50721" rx="0.753604" transform="matrix(-1 0 0 1 191.404 6.82031)" fill="white"/>
<rect width="1.62966" height="1.50721" rx="0.753604" transform="matrix(1 -8.08537e-08 -9.45255e-08 -1 206.278 29.4258)" fill="white"/>
<rect width="1.62966" height="1.50721" rx="0.753604" transform="matrix(-1 0 0 1 220.623 18.875)" fill="white"/>
<rect width="1.62966" height="1.50721" rx="0.753604" transform="matrix(-1 0 0 1 220.623 15.8633)" fill="white"/>
<rect width="1.62966" height="1.50721" rx="0.753604" transform="matrix(-1 0 0 1 220.623 12.8477)" fill="white"/>
<rect width="1.62966" height="1.50721" rx="0.753604" transform="matrix(1 -8.08537e-08 -9.45255e-08 -1 177.048 23.3945)" fill="white"/>
<rect width="1.62966" height="1.50721" rx="0.753604" transform="matrix(-1 0 0 1 220.623 9.83203)" fill="white"/>
<rect width="1.62966" height="1.50721" rx="0.753604" transform="matrix(1 -8.08537e-08 -9.45255e-08 -1 177.048 26.4102)" fill="white"/>
<rect width="1.62966" height="1.50721" rx="0.753604" transform="matrix(-1 0 0 1 153.117 18.875)" fill="white"/>
<rect width="1.62966" height="1.50721" rx="0.753604" transform="matrix(-1 0 0 1 153.117 15.8633)" fill="white"/>
<rect width="1.62966" height="1.50721" rx="0.753604" transform="matrix(-1 0 0 1 153.117 12.8477)" fill="white"/>
<rect width="1.62966" height="1.50721" rx="0.753604" transform="matrix(-1 0 0 1 153.117 9.83203)" fill="white"/>
<rect width="1.62966" height="1.50721" rx="0.753604" transform="matrix(-1 0 0 1 153.117 6.82031)" fill="white"/>
<rect width="1.62966" height="1.50721" rx="0.753604" transform="matrix(-1 0 0 1 153.117 3.80469)" fill="white"/>
<rect width="1.62966" height="1.50721" rx="0.753604" transform="matrix(-1 0 0 1 153.117 0.789062)" fill="white"/>
<rect width="1.62966" height="1.50721" rx="0.753604" transform="matrix(1 -8.08537e-08 -9.45255e-08 -1 145.005 23.3945)" fill="white"/>
<rect width="1.62966" height="1.50721" rx="0.753604" transform="matrix(-1 0 0 1 149.99 18.875)" fill="white"/>
<rect width="1.62966" height="1.50721" rx="0.753604" transform="matrix(-1 0 0 1 149.99 15.8633)" fill="white"/>
<rect width="1.62966" height="1.50721" rx="0.753604" transform="matrix(-1 0 0 1 149.99 12.8477)" fill="white"/>
<rect width="1.62966" height="1.50721" rx="0.753604" transform="matrix(1 -8.08537e-08 -9.45255e-08 -1 148.136 23.3945)" fill="white"/>
<rect width="1.62966" height="1.50721" rx="0.753604" transform="matrix(1 -8.08537e-08 -9.45255e-08 -1 148.136 26.4102)" fill="white"/>
<rect width="1.62966" height="1.50721" rx="0.753604" transform="matrix(-1 0 0 1 159.362 18.875)" fill="white"/>
<rect width="1.62966" height="1.50721" rx="0.753604" transform="matrix(-1 0 0 1 162.385 18.875)" fill="white"/>
<rect width="1.62966" height="1.50721" rx="0.753604" transform="matrix(-1 0 0 1 165.648 18.875)" fill="white"/>
<rect width="1.62966" height="1.50721" rx="0.753604" transform="matrix(-1 0 0 1 159.362 15.8633)" fill="white"/>
<rect width="1.62966" height="1.50721" rx="0.753604" transform="matrix(-1 0 0 1 162.385 15.8633)" fill="white"/>
<rect width="1.62966" height="1.50721" rx="0.753604" transform="matrix(-1 0 0 1 159.362 12.8477)" fill="white"/>
<rect width="1.62966" height="1.50721" rx="0.753604" transform="matrix(-1 0 0 1 146.872 18.875)" fill="white"/>
<rect width="1.62966" height="1.50721" rx="0.753604" transform="matrix(-1 0 0 1 146.872 15.8633)" fill="white"/>
<rect width="1.62966" height="1.50721" rx="0.753604" transform="matrix(-1 0 0 1 146.872 12.8477)" fill="white"/>
<rect width="1.62966" height="1.50721" rx="0.753604" transform="matrix(-1 0 0 1 146.872 9.83203)" fill="white"/>
<rect width="1.62966" height="1.50721" rx="0.753604" transform="matrix(-1 0 0 1 146.872 6.82031)" fill="white"/>
<rect width="1.62966" height="1.50721" rx="0.753604" transform="matrix(1 -8.08537e-08 -9.45255e-08 -1 151.254 23.3945)" fill="white"/>
<rect width="1.62966" height="1.50721" rx="0.753604" transform="matrix(1 -8.08537e-08 -9.45255e-08 -1 151.254 26.4102)" fill="white"/>
<rect width="1.62966" height="1.50721" rx="0.753604" transform="matrix(1 -8.08537e-08 -9.45255e-08 -1 151.254 29.4258)" fill="white"/>
<rect width="1.62966" height="1.50721" rx="0.753604" transform="matrix(1 -8.08537e-08 -9.45255e-08 -1 151.254 32.4414)" fill="white"/>
<rect width="1.62966" height="1.50721" rx="0.753604" transform="matrix(1 -8.08537e-08 -9.45255e-08 -1 154.476 23.3945)" fill="white"/>
<rect width="1.62966" height="1.50721" rx="0.753604" transform="matrix(1 -8.08537e-08 -9.45255e-08 -1 154.476 26.4102)" fill="white"/>
<rect width="1.62966" height="1.50721" rx="0.753604" transform="matrix(1 -8.08537e-08 -9.45255e-08 -1 154.476 29.4258)" fill="white"/>
<rect width="1.62966" height="1.50721" rx="0.753604" transform="matrix(1 -8.08537e-08 -9.45255e-08 -1 157.73 23.3945)" fill="white"/>
<rect width="1.62966" height="1.50721" rx="0.753604" transform="matrix(-1 0 0 1 156.239 18.875)" fill="white"/>
<rect width="1.62966" height="1.50721" rx="0.753604" transform="matrix(-1 0 0 1 156.239 15.8633)" fill="white"/>
<rect width="1.62966" height="1.50721" rx="0.753604" transform="matrix(-1 0 0 1 156.239 12.8477)" fill="white"/>
<rect width="1.62966" height="1.50721" rx="0.753604" transform="matrix(-1 0 0 1 156.239 9.83203)" fill="white"/>
<rect width="1.62966" height="1.50721" rx="0.753604" transform="matrix(-1 0 0 1 267.733 18.875)" fill="white"/>
<rect width="1.62966" height="1.50721" rx="0.753604" transform="matrix(-1 0 0 1 267.733 15.8633)" fill="white"/>
<rect width="1.62966" height="1.50721" rx="0.753604" transform="matrix(-1 0 0 1 267.733 12.8477)" fill="white"/>
<rect width="1.62966" height="1.50721" rx="0.753604" transform="matrix(1 -8.08545e-08 -9.45246e-08 -1 253.368 23.3945)" fill="white"/>
<rect width="1.62966" height="1.50721" rx="0.753604" transform="matrix(-1 0 0 1 267.733 9.83203)" fill="white"/>
<rect width="1.62966" height="1.50721" rx="0.753604" transform="matrix(1 -8.08537e-08 -9.45255e-08 -1 253.368 26.4102)" fill="white"/>
<rect width="1.62966" height="1.50721" rx="0.753604" transform="matrix(-1 0 0 1 264.603 18.875)" fill="white"/>
<rect width="1.62966" height="1.50721" rx="0.753604" transform="matrix(-1 0 0 1 264.603 15.8633)" fill="white"/>
<rect width="1.62966" height="1.50721" rx="0.753604" transform="matrix(-1 0 0 1 264.603 12.8477)" fill="white"/>
<rect width="1.62966" height="1.50721" rx="0.753604" transform="matrix(1 -8.08545e-08 -9.45246e-08 -1 256.498 23.3945)" fill="white"/>
<rect width="1.62966" height="1.50721" rx="0.753604" transform="matrix(-1 0 0 1 264.603 9.83203)" fill="white"/>
<rect width="1.62966" height="1.50721" rx="0.753604" transform="matrix(1 -8.08537e-08 -9.45255e-08 -1 256.498 26.4102)" fill="white"/>
<rect width="1.62966" height="1.50721" rx="0.753604" transform="matrix(-1 0 0 1 264.603 6.82031)" fill="white"/>
<rect width="1.62966" height="1.50721" rx="0.753604" transform="matrix(1 -8.08545e-08 -9.45246e-08 -1 256.498 29.4258)" fill="white"/>
<rect width="1.62966" height="1.50721" rx="0.753604" transform="matrix(-1 0 0 1 277.1 18.875)" fill="white"/>
<rect width="1.62966" height="1.50721" rx="0.753604" transform="matrix(-1 0 0 1 277.1 15.8633)" fill="white"/>
<rect width="1.62966" height="1.50721" rx="0.753604" transform="matrix(-1 0 0 1 277.1 12.8477)" fill="white"/>
<rect width="1.62966" height="1.50721" rx="0.753604" transform="matrix(1 -8.08545e-08 -9.45246e-08 -1 244.004 23.3945)" fill="white"/>
<rect width="1.62966" height="1.50721" rx="0.753604" transform="matrix(-1 0 0 1 277.1 9.83203)" fill="white"/>
<rect width="1.62966" height="1.50721" rx="0.753604" transform="matrix(1 -8.08537e-08 -9.45255e-08 -1 244.004 26.4102)" fill="white"/>
<rect width="1.62966" height="1.50721" rx="0.753604" transform="matrix(-1 0 0 1 277.1 6.82031)" fill="white"/>
<rect width="1.62966" height="1.50721" rx="0.753604" transform="matrix(1 -8.08545e-08 -9.45246e-08 -1 244.004 29.4258)" fill="white"/>
<rect width="1.62966" height="1.50721" rx="0.753604" transform="matrix(-1 0 0 1 277.1 3.80469)" fill="white"/>
<rect width="1.62966" height="1.50721" rx="0.753604" transform="matrix(1 -8.08553e-08 -9.45236e-08 -1 244.004 32.4414)" fill="white"/>
<rect width="1.62966" height="1.50721" rx="0.753604" transform="matrix(-1 0 0 1 277.1 0.789062)" fill="white"/>
<rect width="1.62966" height="1.50721" rx="0.753604" transform="matrix(-1 0 0 1 252.112 18.875)" fill="white"/>
<rect width="1.62966" height="1.50721" rx="0.753604" transform="matrix(-1 0 0 1 252.112 15.8633)" fill="white"/>
<rect width="1.62966" height="1.50721" rx="0.753604" transform="matrix(-1 0 0 1 252.112 12.8477)" fill="white"/>
<rect width="1.62966" height="1.50721" rx="0.753604" transform="matrix(1 -8.08529e-08 -9.45265e-08 -1 268.997 23.3945)" fill="white"/>
<rect width="1.62966" height="1.50721" rx="0.753604" transform="matrix(-1 0 0 1 261.488 18.875)" fill="white"/>
<rect width="1.62966" height="1.50721" rx="0.753604" transform="matrix(-1 0 0 1 261.488 15.8633)" fill="white"/>
<rect width="1.62966" height="1.50721" rx="0.753604" transform="matrix(-1 0 0 1 273.978 18.875)" fill="white"/>
<rect width="1.62966" height="1.50721" rx="0.753604" transform="matrix(-1 0 0 1 273.978 15.8633)" fill="white"/>
<rect width="1.62966" height="1.50721" rx="0.753604" transform="matrix(-1 0 0 1 273.978 12.8477)" fill="white"/>
<rect width="1.62966" height="1.50721" rx="0.753604" transform="matrix(1 -8.08529e-08 -9.45265e-08 -1 247.123 23.3945)" fill="white"/>
<rect width="1.62966" height="1.50721" rx="0.753604" transform="matrix(-1 0 0 1 248.985 18.875)" fill="white"/>
<rect width="1.62966" height="1.50721" rx="0.753604" transform="matrix(-1 0 0 1 248.985 15.8633)" fill="white"/>
<rect width="1.62966" height="1.50721" rx="0.753604" transform="matrix(-1 0 0 1 248.985 12.8477)" fill="white"/>
<rect width="1.62966" height="1.50721" rx="0.753604" transform="matrix(1 -8.08545e-08 -9.45246e-08 -1 272.119 23.3945)" fill="white"/>
<rect width="1.62966" height="1.50721" rx="0.753604" transform="matrix(-1 0 0 1 248.985 9.83203)" fill="white"/>
<rect width="1.62966" height="1.50721" rx="0.753604" transform="matrix(1 -8.08537e-08 -9.45255e-08 -1 272.119 26.4102)" fill="white"/>
<rect width="1.62966" height="1.50721" rx="0.753604" transform="matrix(-1 0 0 1 258.361 18.875)" fill="white"/>
<rect width="1.62966" height="1.50721" rx="0.753604" transform="matrix(-1 0 0 1 258.361 15.8633)" fill="white"/>
<rect width="1.62966" height="1.50721" rx="0.753604" transform="matrix(-1 0 0 1 258.361 12.8477)" fill="white"/>
<rect width="1.62966" height="1.50721" rx="0.753604" transform="matrix(1 -8.08545e-08 -9.45246e-08 -1 262.743 23.3945)" fill="white"/>
<rect width="1.62966" height="1.50721" rx="0.753604" transform="matrix(-1 0 0 1 283.35 18.875)" fill="white"/>
<rect width="1.62966" height="1.50721" rx="0.753604" transform="matrix(-1 0 0 1 286.373 18.875)" fill="white"/>
<rect width="1.62966" height="1.50721" rx="0.753604" transform="matrix(-1 0 0 1 283.35 15.8633)" fill="white"/>
<rect width="1.62966" height="1.50721" rx="0.753604" transform="matrix(-1 0 0 1 286.373 15.8633)" fill="white"/>
<rect width="1.62966" height="1.50721" rx="0.753604" transform="matrix(-1 0 0 1 283.35 12.8477)" fill="white"/>
<rect width="1.62966" height="1.50721" rx="0.753604" transform="matrix(1 -8.08529e-08 -9.45265e-08 -1 237.755 23.3945)" fill="white"/>
<rect width="1.62966" height="1.50721" rx="0.753604" transform="matrix(-1 0 0 1 270.851 18.875)" fill="white"/>
<rect width="1.62966" height="1.50721" rx="0.753604" transform="matrix(-1 0 0 1 270.851 15.8633)" fill="white"/>
<rect width="1.62966" height="1.50721" rx="0.753604" transform="matrix(-1 0 0 1 270.851 12.8477)" fill="white"/>
<rect width="1.62966" height="1.50721" rx="0.753604" transform="matrix(1 -8.08545e-08 -9.45246e-08 -1 250.25 23.3945)" fill="white"/>
<rect width="1.62966" height="1.50721" rx="0.753604" transform="matrix(-1 0 0 1 270.851 9.83203)" fill="white"/>
<rect width="1.62966" height="1.50721" rx="0.753604" transform="matrix(1 -8.08537e-08 -9.45255e-08 -1 250.25 26.4102)" fill="white"/>
<rect width="1.62966" height="1.50721" rx="0.753604" transform="matrix(-1 0 0 1 270.851 6.82031)" fill="white"/>
<rect width="1.62966" height="1.50721" rx="0.753604" transform="matrix(1 -8.08545e-08 -9.45246e-08 -1 250.25 29.4258)" fill="white"/>
<rect width="1.62966" height="1.50721" rx="0.753604" transform="matrix(-1 0 0 1 245.859 18.875)" fill="white"/>
<rect width="1.62966" height="1.50721" rx="0.753604" transform="matrix(-1 0 0 1 245.859 15.8633)" fill="white"/>
<rect width="1.62966" height="1.50721" rx="0.753604" transform="matrix(-1 0 0 1 245.859 12.8477)" fill="white"/>
<rect width="1.62966" height="1.50721" rx="0.753604" transform="matrix(1 -8.08545e-08 -9.45246e-08 -1 275.242 23.3945)" fill="white"/>
<rect width="1.62966" height="1.50721" rx="0.753604" transform="matrix(-1 0 0 1 245.859 9.83203)" fill="white"/>
<rect width="1.62966" height="1.50721" rx="0.753604" transform="matrix(1 -8.08537e-08 -9.45255e-08 -1 275.242 26.4102)" fill="white"/>
<rect width="1.62966" height="1.50721" rx="0.753604" transform="matrix(-1 0 0 1 245.859 6.82031)" fill="white"/>
<rect width="1.62966" height="1.50721" rx="0.753604" transform="matrix(1 -8.08545e-08 -9.45246e-08 -1 275.242 29.4258)" fill="white"/>
<rect width="1.62966" height="1.50721" rx="0.753604" transform="matrix(-1 0 0 1 245.859 3.80469)" fill="white"/>
<rect width="1.62966" height="1.50721" rx="0.753604" transform="matrix(1 -8.08553e-08 -9.45236e-08 -1 275.242 32.4414)" fill="white"/>
<rect width="1.62966" height="1.50721" rx="0.753604" transform="matrix(-1 0 0 1 242.645 18.875)" fill="white"/>
<rect width="1.62966" height="1.50721" rx="0.753604" transform="matrix(-1 0 0 1 242.645 15.8633)" fill="white"/>
<rect width="1.62966" height="1.50721" rx="0.753604" transform="matrix(-1 0 0 1 242.645 12.8477)" fill="white"/>
<rect width="1.62966" height="1.50721" rx="0.753604" transform="matrix(1 -8.08545e-08 -9.45246e-08 -1 278.463 23.3945)" fill="white"/>
<rect width="1.62966" height="1.50721" rx="0.753604" transform="matrix(-1 0 0 1 242.645 9.83203)" fill="white"/>
<rect width="1.62966" height="1.50721" rx="0.753604" transform="matrix(1 -8.08537e-08 -9.45255e-08 -1 278.463 26.4102)" fill="white"/>
<rect width="1.62966" height="1.50721" rx="0.753604" transform="matrix(-1 0 0 1 242.645 6.82031)" fill="white"/>
<rect width="1.62966" height="1.50721" rx="0.753604" transform="matrix(1 -8.08545e-08 -9.45246e-08 -1 278.463 29.4258)" fill="white"/>
<rect width="1.62966" height="1.50721" rx="0.753604" transform="matrix(-1 0 0 1 239.386 18.875)" fill="white"/>
<rect width="1.62966" height="1.50721" rx="0.753604" transform="matrix(-1 0 0 1 239.386 15.8633)" fill="white"/>
<rect width="1.62966" height="1.50721" rx="0.753604" transform="matrix(-1 0 0 1 239.386 12.8477)" fill="white"/>
<rect width="1.62966" height="1.50721" rx="0.753604" transform="matrix(1 -8.08545e-08 -9.45246e-08 -1 281.722 23.3945)" fill="white"/>
<rect width="1.62966" height="1.50721" rx="0.753604" transform="matrix(-1 0 0 1 236.128 18.875)" fill="white"/>
<rect width="1.62966" height="1.50721" rx="0.753604" transform="matrix(-1 0 0 1 232.869 18.875)" fill="white"/>
<rect width="1.62966" height="1.50721" rx="0.753604" transform="matrix(-1 0 0 1 236.128 15.8633)" fill="white"/>
<rect width="1.62966" height="1.50721" rx="0.753604" transform="matrix(-1 0 0 1 255.235 18.875)" fill="white"/>
<rect width="1.62966" height="1.50721" rx="0.753604" transform="matrix(-1 0 0 1 255.235 15.8633)" fill="white"/>
<rect width="1.62966" height="1.50721" rx="0.753604" transform="matrix(-1 0 0 1 255.235 12.8477)" fill="white"/>
<rect width="1.62966" height="1.50721" rx="0.753604" transform="matrix(1 -8.08529e-08 -9.45265e-08 -1 265.875 23.3945)" fill="white"/>
<rect width="1.62966" height="1.50721" rx="0.753604" transform="matrix(-1 0 0 1 255.235 9.83203)" fill="white"/>
<rect width="1.62966" height="1.50721" rx="0.753604" transform="matrix(1 -8.08521e-08 -9.45274e-08 -1 265.875 26.4102)" fill="white"/>
<rect width="1.62966" height="1.50721" rx="0.753604" transform="matrix(-1 0 0 1 255.235 6.82031)" fill="white"/>
<rect width="1.62966" height="1.50721" rx="0.753604" transform="matrix(1 -8.08529e-08 -9.45265e-08 -1 265.875 29.4258)" fill="white"/>
<rect width="1.62966" height="1.50721" rx="0.753604" transform="matrix(-1 0 0 1 280.228 18.875)" fill="white"/>
<rect width="1.62966" height="1.50721" rx="0.753604" transform="matrix(-1 0 0 1 280.228 15.8633)" fill="white"/>
<rect width="1.62966" height="1.50721" rx="0.753604" transform="matrix(-1 0 0 1 280.228 12.8477)" fill="white"/>
<rect width="1.62966" height="1.50721" rx="0.753604" transform="matrix(1 -8.08545e-08 -9.45246e-08 -1 240.878 23.3945)" fill="white"/>
<rect width="1.62966" height="1.50721" rx="0.753604" transform="matrix(-1 0 0 1 280.228 9.83203)" fill="white"/>
<rect width="1.62966" height="1.50721" rx="0.753604" transform="matrix(1 -8.08537e-08 -9.45255e-08 -1 240.878 26.4102)" fill="white"/>
</svg>
