<svg width="20" height="20" viewBox="0 0 20 20" fill="none" xmlns="http://www.w3.org/2000/svg">
<path d="M9.99583 0C4.48417 0 0 4.485 0 9.99667C0 15.5133 4.48417 20 9.99583 20C15.5125 20 20 15.5125 20 9.99667C20 4.485 15.5125 0 9.99583 0ZM4.92333 13.67C6.06785 13.3194 7.25799 13.1402 8.455 13.1383C10.4667 13.1383 12.4525 13.6483 14.1983 14.6133C14.3025 14.67 14.3967 14.8567 14.44 15.09C14.4817 15.3233 14.465 15.5625 14.3967 15.6867C14.3645 15.7457 14.3209 15.7978 14.2684 15.8399C14.2159 15.882 14.1556 15.9132 14.0909 15.9318C14.0263 15.9504 13.9586 15.956 13.8918 15.9483C13.825 15.9405 13.7603 15.9196 13.7017 15.8867C12.4193 15.1832 11.0088 14.7444 9.55367 14.5964C8.09856 14.4484 6.62855 14.5942 5.23083 15.025C5.16667 15.0457 5.09902 15.0535 5.03182 15.0479C4.96462 15.0422 4.89922 15.0232 4.83942 14.9921C4.77962 14.9609 4.72663 14.9181 4.68352 14.8663C4.64041 14.8144 4.60806 14.7545 4.58833 14.69C4.49917 14.3983 4.68333 13.7483 4.92333 13.67ZM4.4875 9.98667C5.78046 9.6354 7.11435 9.45746 8.45417 9.4575C10.8658 9.4575 13.26 10.0408 15.3792 11.1458C15.5283 11.2208 15.6375 11.3492 15.6875 11.5058C15.7128 11.585 15.722 11.6683 15.7145 11.751C15.7071 11.8338 15.6832 11.9142 15.6442 11.9875C15.455 12.3575 15.2333 12.6067 15.0942 12.6067C14.9926 12.6062 14.8927 12.5817 14.8025 12.535C12.8435 11.5122 10.6649 10.982 8.455 10.99C7.22578 10.9875 6.00188 11.1515 4.81667 11.4775C4.7376 11.4991 4.65505 11.5049 4.57373 11.4947C4.49241 11.4844 4.41391 11.4582 4.34272 11.4175C4.27153 11.3769 4.20904 11.3227 4.15881 11.2579C4.10859 11.1931 4.07161 11.1191 4.05 11.04C3.95667 10.6883 4.17083 10.0733 4.4875 9.98667ZM4.375 7.58167C4.2812 7.60574 4.18357 7.611 4.08773 7.59714C3.99189 7.58327 3.89974 7.55057 3.81661 7.50091C3.73348 7.45124 3.661 7.38561 3.60337 7.30779C3.54574 7.22997 3.50409 7.1415 3.48083 7.0475C3.37833 6.6325 3.6375 6.15083 4.01417 6.05583C5.46709 5.69797 6.95782 5.51639 8.45417 5.515C11.3292 5.515 14.0842 6.16167 16.6408 7.4375C16.8165 7.52485 16.9503 7.67837 17.0128 7.86433C17.0753 8.05028 17.0614 8.25345 16.9742 8.42917C16.855 8.66917 16.5967 8.9275 16.3117 8.9275C16.1999 8.92708 16.0896 8.90235 15.9883 8.855C13.6505 7.6822 11.0697 7.07532 8.45417 7.08333C7.09167 7.08333 5.71917 7.25083 4.375 7.58167Z" fill="#ADADAD"/>
</svg>
