<svg width="46" height="46" viewBox="0 0 46 46" fill="none" xmlns="http://www.w3.org/2000/svg">
<path d="M23.0004 15.5251C22.4718 15.5251 21.9484 15.421 21.4601 15.2187C20.9718 15.0164 20.528 14.72 20.1543 14.3462C19.7805 13.9724 19.4841 13.5287 19.2818 13.0404C19.0795 12.5521 18.9754 12.0287 18.9754 11.5001C18.9754 10.9715 19.0795 10.4481 19.2818 9.9598C19.4841 9.47146 19.7805 9.02775 20.1543 8.65399C20.528 8.28024 20.9718 7.98376 21.4601 7.78148C21.9484 7.57921 22.4718 7.4751 23.0004 7.4751C24.0679 7.4751 25.0917 7.89916 25.8465 8.65399C26.6013 9.40883 27.0254 10.4326 27.0254 11.5001C27.0254 12.5676 26.6013 13.5914 25.8465 14.3462C25.0917 15.101 24.0679 15.5251 23.0004 15.5251Z" fill="black"/>
<path d="M23.0004 27.0251C22.4718 27.0251 21.9484 26.921 21.4601 26.7187C20.9718 26.5164 20.528 26.22 20.1543 25.8462C19.7805 25.4724 19.4841 25.0287 19.2818 24.5404C19.0795 24.0521 18.9754 23.5287 18.9754 23.0001C18.9754 22.4715 19.0795 21.9481 19.2818 21.4598C19.4841 20.9715 19.7805 20.5277 20.1543 20.154C20.528 19.7802 20.9718 19.4838 21.4601 19.2815C21.9484 19.0792 22.4718 18.9751 23.0004 18.9751C24.0679 18.9751 25.0917 19.3992 25.8465 20.154C26.6013 20.9088 27.0254 21.9326 27.0254 23.0001C27.0254 24.0676 26.6013 25.0914 25.8465 25.8462C25.0917 26.601 24.0679 27.0251 23.0004 27.0251Z" fill="black"/>
<path d="M18.9754 34.5001C18.9754 35.0287 19.0795 35.5521 19.2818 36.0404C19.4841 36.5287 19.7805 36.9724 20.1543 37.3462C20.528 37.72 20.9718 38.0164 21.4601 38.2187C21.9484 38.421 22.4718 38.5251 23.0004 38.5251C23.529 38.5251 24.0524 38.421 24.5407 38.2187C25.029 38.0164 25.4727 37.72 25.8465 37.3462C26.2203 36.9724 26.5167 36.5287 26.719 36.0404C26.9213 35.5521 27.0254 35.0287 27.0254 34.5001C27.0254 33.4326 26.6013 32.4088 25.8465 31.654C25.0917 30.8992 24.0679 30.4751 23.0004 30.4751C21.9329 30.4751 20.9091 30.8992 20.1543 31.654C19.3995 32.4088 18.9754 33.4326 18.9754 34.5001Z" fill="black"/>
</svg>
