<svg width="30" height="30" viewBox="0 0 30 30" fill="none" xmlns="http://www.w3.org/2000/svg">
<path d="M23.125 9.375C23.125 9.375 25 11.25 25 14.375C25 17.5 23.125 19.375 23.125 19.375" stroke="black" stroke-width="2" stroke-linecap="round" stroke-linejoin="round"/>
<path d="M5 17.5002V12.5002C5 12.1686 5.1317 11.8507 5.36612 11.6163C5.60054 11.3818 5.91848 11.2502 6.25 11.2502H9.62125C9.86817 11.2502 10.1096 11.1771 10.315 11.0401L15.5563 7.54515C15.7447 7.41943 15.9637 7.34728 16.19 7.3364C16.4162 7.32553 16.6412 7.37633 16.8408 7.4834C17.0404 7.59046 17.2072 7.74975 17.3233 7.94425C17.4394 8.13874 17.5005 8.36113 17.5 8.58765V21.4126C17.5 21.639 17.4386 21.861 17.3223 22.0552C17.2061 22.2493 17.0392 22.4082 16.8397 22.515C16.6402 22.6218 16.4154 22.6723 16.1894 22.6614C15.9633 22.6504 15.7445 22.5782 15.5563 22.4527L10.315 18.9589C10.1094 18.8224 9.86804 18.7497 9.62125 18.7502H6.25C5.91848 18.7502 5.60054 18.6185 5.36612 18.384C5.1317 18.1496 5 17.8317 5 17.5002Z" stroke="black" stroke-width="2"/>
</svg>
