<svg width="53" height="53" viewBox="0 0 53 53" fill="none" xmlns="http://www.w3.org/2000/svg">
<rect x="0.5" y="0.5" width="52" height="52" rx="26" fill="#272727" stroke="white"/>
<path d="M31.8142 29.82C31.8142 30.9267 31.3876 31.8933 30.5342 32.72C29.6809 33.5333 28.5742 34 27.2142 34.12V35.74H26.0342V34.12C24.5676 34.0267 23.4076 33.6067 22.5542 32.86C21.7009 32.1 21.2742 31.0667 21.2742 29.76H24.9142C24.9942 30.6533 25.3676 31.1867 26.0342 31.36V28.22C25.4209 28.0733 24.8276 27.9 24.2542 27.7C23.6942 27.5 23.3409 27.3533 23.1942 27.26C23.0476 27.1667 22.8476 27.04 22.5942 26.88C22.3542 26.72 22.1676 26.5533 22.0342 26.38C21.9142 26.2067 21.7809 26.0067 21.6342 25.78C21.3942 25.38 21.2742 24.8133 21.2742 24.08C21.2742 22.8667 21.7276 21.88 22.6342 21.12C23.5409 20.3467 24.6742 19.9 26.0342 19.78V18.16H27.2142V19.78C28.6142 19.86 29.7209 20.2467 30.5342 20.94C31.3476 21.62 31.7742 22.6533 31.8142 24.04H28.2942C28.2142 23.3067 27.8542 22.8133 27.2142 22.56V25.72C28.5476 26.0933 29.4209 26.38 29.8342 26.58C31.1542 27.2467 31.8142 28.3267 31.8142 29.82ZM26.0342 22.52C25.2609 22.6667 24.8742 23.0867 24.8742 23.78C24.8742 24.4733 25.2609 24.9867 26.0342 25.32V22.52ZM27.2142 31.36C27.8809 31.1733 28.2142 30.76 28.2142 30.12C28.2142 29.48 27.8809 28.9933 27.2142 28.66V31.36Z" fill="white"/>
</svg>
