<svg width="53" height="53" viewBox="0 0 53 53" fill="none" xmlns="http://www.w3.org/2000/svg">
<rect x="0.5" y="0.5" width="52" height="52" rx="26" fill="#272727" stroke="white"/>
<path d="M15.7736 24.768C15.4323 24.768 15.1496 24.8587 14.9256 25.04C14.7123 25.2213 14.6056 25.4827 14.6056 25.824C14.6056 26.1653 14.707 26.4427 14.9096 26.656C15.1123 26.8587 15.3736 27.0187 15.6936 27.136C16.0243 27.2427 16.387 27.3493 16.7816 27.456C17.187 27.552 17.587 27.6747 17.9816 27.824C18.3763 27.9627 18.7336 28.1387 19.0536 28.352C19.3843 28.5653 19.651 28.8693 19.8536 29.264C20.0563 29.648 20.1576 30.112 20.1576 30.656C20.1576 31.6053 19.7683 32.4213 18.9896 33.104C18.2216 33.776 17.203 34.112 15.9336 34.112C14.675 34.112 13.6563 33.808 12.8776 33.2C12.1096 32.592 11.7256 31.728 11.7256 30.608H14.6376C14.7123 31.504 15.171 31.952 16.0136 31.952C16.4083 31.952 16.7176 31.8507 16.9416 31.648C17.1656 31.4347 17.2776 31.168 17.2776 30.848C17.2776 30.528 17.1763 30.2667 16.9736 30.064C16.771 29.8613 16.5043 29.7013 16.1736 29.584C15.8536 29.4667 15.491 29.36 15.0856 29.264C14.691 29.1573 14.2963 29.0293 13.9016 28.88C13.507 28.7307 13.1443 28.5547 12.8136 28.352C12.4936 28.1387 12.2323 27.84 12.0296 27.456C11.827 27.0613 11.7256 26.5973 11.7256 26.064C11.7256 25.0187 12.115 24.1813 12.8936 23.552C13.6723 22.9227 14.6643 22.608 15.8696 22.608C17.0856 22.608 18.067 22.8853 18.8136 23.44C19.5603 23.984 19.9496 24.848 19.9816 26.032H17.0056C16.963 25.6267 16.8296 25.3173 16.6056 25.104C16.3923 24.88 16.115 24.768 15.7736 24.768ZM25.221 34L21.237 22.768H24.149L26.933 31.328L29.717 22.768H32.629L28.645 34H25.221ZM37.9024 30.416V22.768H40.6384V30.416C40.6384 31.5787 40.2864 32.4853 39.5824 33.136C38.889 33.7867 37.9984 34.112 36.9104 34.112C35.8224 34.112 34.9317 33.792 34.2384 33.152C33.545 32.5013 33.1984 31.5893 33.1984 30.416H35.9184C35.929 30.8427 36.025 31.1573 36.2064 31.36C36.3877 31.5627 36.6224 31.664 36.9104 31.664C37.1984 31.664 37.433 31.5627 37.6144 31.36C37.8064 31.1573 37.9024 30.8427 37.9024 30.416Z" fill="white"/>
</svg>
